<?xml version="1.0" encoding="UTF-8"?>
<svg id="Characters" xmlns="http://www.w3.org/2000/svg" viewBox="0 0 314.96 323.83">
  <defs>
    <style>
      .cls-1 {
        fill: #e99f39;
      }

      .cls-1, .cls-2, .cls-3, .cls-4, .cls-5, .cls-6, .cls-7, .cls-8, .cls-9, .cls-10, .cls-11, .cls-12, .cls-13, .cls-14, .cls-15 {
        stroke-width: 0px;
      }

      .cls-2 {
        fill: #e58f5e;
      }

      .cls-3 {
        fill: #b25637;
      }

      .cls-4 {
        fill: #3f1a17;
      }

      .cls-5 {
        fill: #b75e1c;
      }

      .cls-6 {
        fill: #531619;
      }

      .cls-7 {
        fill: #fdfdfc;
      }

      .cls-8 {
        fill: #e25622;
      }

      .cls-9 {
        fill: #dd2018;
      }

      .cls-10 {
        fill: #c1251c;
      }

      .cls-11 {
        fill: #fad942;
      }

      .cls-12 {
        fill: #a41a1b;
      }

      .cls-13 {
        fill: #7c3021;
      }

      .cls-14 {
        fill: #241311;
      }

      .cls-15 {
        fill: #f0841a;
      }
    </style>
  </defs>
  <g id="Ignis">
    <g>
      <path class="cls-14" d="M184.72,199.37c1.54,3.54,3.66,6.77,5.59,10.1,5.15,8.89,9.79,18.04,14.01,27.4.48,1.06.92,2.15,1.2,3.27.47,1.85-.16,2.6-2.03,2.67-.98.04-1.82-.29-2.66-.73-.92-.48-1.87-.9-2.82-1.33-.09-.04-.23,0-.35.02-.44.64-.2,1.36-.2,2.04,0,3.17-.96,5.97-3.18,8.29-2.86,2.97-1.45,6.57-1.37,9.93.02.92,1.24,1.31,1.99,1.84,2.4,1.7,4.65,3.53,6.06,6.2,2.16,4.08,1.1,6.34-3.4,7.37-2.53.58-5.08.72-7.65.76-7.61.13-15.15-.63-22.59-2.2-4.55-.97-5.54-2.16-6.13-6.78-.53-4.16-1.07-8.32-1.61-12.52-1.42-.17-2.06,1-2.93,1.67-1.44,1.1-2.62,1.06-4.08-.03-4.13-3.08-8.02-6.42-11.66-10.06-1.22-1.22-2.3-2.63-4.02-3.36-.57,1.12-1.12,2.15-1.63,3.19-2.24,4.65-5.78,7.94-10.67,9.5-2.27.73-3.44,2-4.07,4.18-1.1,3.81-2.41,7.57-2.9,11.52-.33,2.67-1.64,4.01-4.18,4.86-8.38,2.79-16.89,3.37-25.56,2.02-.91-.14-1.83-.42-2.67-.79-2.71-1.19-3.61-3.1-2.8-5.95.58-2.04,1.52-3.95,2.91-5.54,1.44-1.65,2.19-3.54,2.6-5.63.36-1.83.62-3.7,1.2-5.46,1.06-3.23,1.41-6.29-.86-9.21-.46-.6-.55-1.52-.71-2.32-.49-2.38-.47-2.41-3.06-2.23-1.39.1-2.78.4-4.17.4-2.44-.01-3.17-1.05-2.33-3.34.89-2.41,2.12-4.67,3.5-6.84,5.62-8.89,11.64-17.5,17.94-25.91,3.64-4.85,7.02-9.92,11.14-14.4.48-.52.8-1.05.94-1.8.62-3.4.64-6.81.44-10.24-.04-.65-.35-1.1-.79-1.49-1.49-1.32-2.54-2.9-2.85-5.37-3.69,6.92-6.85,13.55-10.7,19.8-6.34,10.31-13.62,19.82-23.1,27.49-.45.37-.88.77-1.34,1.13-4.58,3.64-6.76,3.43-10.54-1.15-4.94-5.99-7.7-13.02-9.37-20.5-.84-3.75-1.54-7.55-1.65-11.42,1.16-.62,2.38-.49,3.61-.31.75,4.22,2.29,8.25,3.01,12.49.4,2.38.84,4.79,1.83,7.06,1.45,3.31,3.17,6.45,5.89,8.89,1.72,1.54,3.12,1.21,4.18-.82.27-.51.41-1.09.62-1.62,1.43-3.59,1.95-7.36,2.38-11.18.44-3.91,1.26-7.78,1.06-11.75-.17-3.34-.62-3.78-3.88-3.89-2.53-.08-5.14.55-7.56-.73,1.8-1.17,3.63-2.27,5.71-2.87q4.59.18,3.71-4.09c.77-1.03,1.06-2.55,2.71-2.7.55,2.12,1.15,4.22,1.56,6.39.75,3.87.81,7.82,1.42,11.7-.29,6.31-1.39,12.51-3.09,19.38,2.66-1.69,3.86-3.5,5-5.36,3.43-2.69,5.81-6.33,8.38-9.74,6.05-8.02,10.63-16.96,15.15-25.89,1.68-3.32,3.02-6.82,4.69-10.15,1.07-2.12,2.14-4.34,4.51-5.78.43,1.85-.2,3.31-.62,4.69-.69,2.27-.71,4.31.58,6.36.55.87.91,1.84.82,2.97-.27,3.65.28,4.56,3.78,5.33,10.94,2.4,21.97,4.04,33.22,3.48,2.73-.14,2.88-.43,1.78-3.49-.77-2.72-2.42-4.91-4.18-7.04-.12-1.64-1.4-2.01-2.65-2.35-8.76-2.42-15.79-7.88-23.01-13.02-4.29-3.05-7.63-7.19-11.78-10.42-3.13-2.43-6.15-4.99-9.53-7.09-1.44-.9-2.52-.9-3.46.73-1.1,1.9-2.94,3.3-3.76,5.4-2.27,2.06-3.67,4.81-5.58,7.17-1.86,2.3-4.31,4.11-5.98,6.76,3.18,1.87,6.5,3.23,8.13,6.61-.3.34-.6.68-.89,1.02-3.17-2.1-6.74-3.33-10.25-4.67-.11-2.1-.22-4.2-.33-6.29,2.54-1.92,4.53-4.36,6.49-6.84.93-1.18,1.11-1.98-.07-3.25-2.91-3.12-4.88-6.81-5.77-11.03-.27-1.27-.39-2.55-.29-3.83.19-2.3,1.25-3.86,3.57-4.65,3.1-1.05,6.36-1.26,9.52-2.08-.23-1.13-1.32-1.25-2.06-1.7-3.21-1.94-6.24-4.1-9.08-6.55-3.31-2.85-6.14-6.11-8.01-10.08-1.84-3.9-2.57-7.81-1.09-12.17,2.03-5.97,4.37-11.8,6.69-17.65,1.2-3.03,1.22-2.98-1.54-4.46-3.77-2.02-6.9-4.77-9.35-8.28-.54-.77-1.03-1.56-1.22-2.5-.41-1.99.12-3.03,2.02-3.86,1.07-.46,2.15-.92,3.26-1.26,5.09-1.57,9.63-4.15,13.73-7.5,7.83-6.4,16.3-11.66,25.9-14.99,1.27-.44,1.8-1.14,2.11-2.43.68-2.85,1.91-5.51,3.45-8,.67-1.09,1.39-2.18,2.28-3.09,1.59-1.64,2.88-1.24,3.36.99.49,2.28.81,4.6,1.33,6.87.63,2.7.68,2.56,3.44,2.4,10.41-.63,20.81-.48,30.97,2.12,8.54,2.19,15.92,6.56,22.16,13.26,2.66-3.29,4.06-6.9,4.36-10.9.18-2.44.05-4.9.06-7.35,0-.93-.16-1.98.89-2.46,1.01-.46,1.8.22,2.51.81,5.16,4.31,7.98,9.96,9.19,16.46,1.53,8.16.04,15.81-4.41,22.8-.98,1.54-1.11,2.79-.58,4.52,3.47,11.4,5.64,23.09,7.69,34.82,1.64,9.37-1.06,16.8-8.69,22.44-1.13.83-2.27,1.63-3.42,2.44-.56.4-1.13.78-1.79,1.23.97,1.34,2.5,1.28,3.64,1.94,2.2,1.26,2.63,1.99,2.21,4.55-.48,2.91-1.45,5.69-2.97,8.18-1.11,1.81-.88,3.18.28,4.76,1.32,1.78,2.5,3.66,3.73,5.51,2.55,3.82,5.91,6.12,10.72,5.73.81-.07,1.64-.03,2.45-.05,1.27,1.22,1.24,2.84,1.33,4.42-1.63,0-3.26.11-4.87-.03-3.33-.29-6.16.83-8.74,2.79-1.11.84-2.13,1.8-3.27,2.6-.58.41-1.2,1.22-2.19.38.67-3.58,4.15-5.22,6.04-8.06-2.74-1.28-5.08.66-7.56.37.17-1.37,1.15-1.62,1.9-2.12,1.88-1.24,1.94-1.3.68-3.21-1.07-1.62-2.3-3.15-3.47-4.71-.09-.83-.61-1.52-1.31-.89-2.17,1.94-4.66,4.02-4.84,7.02-.25,4.23-1.14,8.57.7,12.74,1.06,2.42.81,4.89-.77,6.97-2.16,2.84-1.39,5.24.31,7.96,5.89,9.42,14.04,16.7,22.25,23.93.31.28.85.3,1.28.45,1.33,1.77,2.97,3.1,5.07,3.82.4-.58.07-1-.05-1.42-1.91-6.62-2.79-13.36-2.34-20.26.07-1.03-.02-2.08-.04-3.12.64-6.52,1.79-12.92,4.39-18.98,1.77-.01,2.09,1.38,2.54,2.64-1.03,1.46-1.12,3.23-1.62,4.86-.31,1,.13,1.65,1.22,1.37,1.88-.48,3.88-.52,5.65-1.42,3.79.14,7.18,1.72,10.69,2.89-.55,11.98-2.75,23.57-8.29,34.35-.86,1.67-1.9,3.21-3.17,4.59-2.05,2.23-3.48,2.41-6.18.96-8.28-4.44-15.76-9.93-22.17-16.84-1.27-1.37-2.57-2.69-3.86-4.04-1.09-1.63-2.36-3.09-4.01-4.19.88,1.79,1.47,3.71,2.96,5.07ZM173.78,209.03l.02.03c-.01.43.17.74.54.95,0,.19.06.34.21.46-.02.41.17.7.53.88,5.43,10.28,13.11,18.38,23.08,24.32.5-.64.3-.96.17-1.26-5.12-11.78-11.46-22.89-18.33-33.71-.03-.97-.48-1.69-1.3-2.2-.07-.54-.26-1.02-.74-1.34.05-.74-.38-1.31-.67-1.93-.53-1.15-1.34-1.52-2.52-.98-1.37.63-3.74.39-3.57,2.54.24,2.93-.1,5.98,1.14,8.79-.02,1.07.56,1.92,1.03,2.8-.12.37.04.57.39.66ZM84.67,51.93h0c-.42.03-.72.23-.9.61-.19.01-.35.09-.47.24-.4-.03-.65.15-.77.53h.02c-.43.01-.75.21-.97.58-.17-.02-.3.04-.39.18-.43,0-.73.2-.92.58-.19,0-.35.07-.48.22-.41-.03-.69.15-.85.53-.21,0-.38.08-.52.23-1.98.35-3.75,1.27-5.54,2.12-1.3-.03-1.91.69-1.12,1.71,2.44,3.18,5.19,5.99,9.47,6.64.9.14,1.66.16,2.16-.62,1.82-2.83,4.68-4.87,6.07-8.02.44-.39.88-.77,1.32-1.16.7.19,1.41.37,2.11.56-1.55,2.42-3.43,4.64-4.25,7.47-.59.2-.95.63-1.23,1.16-4.76,9.01-8.76,18.33-11.58,28.12-.7,2.41-.45,4.82.64,7.17,1.94,4.21,4.51,7.8,8.3,10.63,6.13,4.57,12.52,8.82,19.75,11.13,6.26,1.99,12.32,4.3,18.22,7.1,2.08.99,4.01,2.24,5.9,4.07-2.21.5-3.79-.38-5.31-1.08-5.43-2.49-11.11-4.19-16.89-5.66-3.94-1-7.87-.81-11.84-.59-.88.05-1.83.11-2.56,1.28,2.69,1.24,5.29,2.45,7.9,3.66l.07.04c.14.37.42.54.8.56,2.35,1.73,4.7,3.45,7.04,5.2,6.46,4.83,12.16,10.55,18.35,15.7,6.19,5.16,13.22,8.7,20.76,11.37,8.05,2.86,15.27,1.57,21.99-3.72,6.05-4.76,11.01-10.4,15-16.94,1.53-2.51,2.53-5.25,3.62-7.96.59-1.45.16-2.34-1.4-2.95-4.88-1.94-4.86-1.99-9.29.86-.59.38-1.16.79-1.73,1.19-.4.02-.68.22-.84.59-1.78,1.06-3.56,2.13-5.34,3.19-.85-.45-1.72.63-2.7-.09.18-1.33,1.24-2.04,2.18-2.77.8-.63,1.73-1.08,2.08-2.14,1.77-.4,3.05-1.65,4.48-2.61,2.98-2.01,5.91-4.09,8.94-6.02,2.87-1.82,5.41-3.99,7.88-6.31,3.96-3.73,5.48-8.31,4.9-13.58-.91-8.21-2.59-16.28-4.75-24.25-.64-2.8-1.26-5.61-1.92-8.41-.26-1.12-.58-2.23-.92-3.33-.15-.49-.55-.78-1.05-.6-.29.1-.61.4-.72.68-.16.41-.29.94-.17,1.34,1.08,3.63,1.36,7.46,2.73,11.02.12,1.16.18,2.32.37,3.47.94,5.51,2.04,10.99,2.86,16.52.89,6.05-.11,11.73-4.74,16.11-4.49,4.25-9.3,8.13-14.83,11.01-3.4,1.77-6.61,3.84-9.51,6.37-3.97,2.47-7.85,5.05-10.07,9.48-.47-.16-.92-.28-1.33-.46-.53-.23-1.03-.53-1.54-.79-3.57-3.52-7.6-6.45-11.65-9.38-6.42-4.64-13.9-7.3-20.77-11.1-6.76-3.74-13.42-7.47-17.06-14.76.03-.19-.02-.35-.15-.49-.22-2.57-.43-5.15-.65-7.72.2-1.4.41-2.8.61-4.2l.11-.7c.11-.15.14-.32.08-.51.63-.66.68-1.47.6-2.31.12-.14.16-.31.11-.49.51-.43.63-.99.53-1.62.12-.16.17-.35.14-.55.52-.4.65-.94.55-1.56.12-.16.17-.34.15-.55.84-1.07,1.36-2.25,1.35-3.64h0c.58-.31.7-.83.63-1.43.13-.13.19-.29.17-.47.54-.37.71-.93.77-1.55.49-.5.66-1.14.75-1.81.37-.24.55-.59.59-1.02.67-1.22,1.37-2.42,2-3.66,1.95-3.84,3.95-7.69,6.75-10.97,1.61-1.89,1.82-3.25.54-5.49-3.02-5.31-4.89-11.02-4.72-17.28.13-4.87-.09-4.93-4.75-2.92-7.76,3.36-14.56,8.21-21.02,13.58-.42.04-.71.25-.89.63-.2.01-.36.1-.48.25-.4-.04-.63.16-.74.53ZM168.22,38.55c-.33-.58-.81-.82-1.47-.63-1.02-.27-2-.64-2.78-1.4-.22-.73-.81-.76-1.43-.75-.12-.12-.26-.17-.43-.13-.45-.51-1.03-.64-1.68-.55-.15-.12-.31-.15-.49-.1-2.92-1.62-6.14-2.04-9.39-2.29-.45-.07-.9-.15-1.35-.22-1.16-.39-2.29-.93-3.56-.48-.67-.28-1.36-.27-2.06-.16-1.15-.4-2.31-.36-3.48-.13-1.87-.22-3.74-.23-5.61-.05-.24.01-.48.02-.72.03-.46.02-.93.04-1.39.07-1.04-.01-2.09-.13-3.11-.02-2.74.28-2.91.86-1.15,3.47.16.87.62,1.54,1.29,2.09.24.31.47.61.71.92,1.07,1.93,2.65,3.36,4.46,4.57,1.93,2.26,1.94,2.27,4.22,1.26,1.06-.47,2.09-1.05,3.16-1.48,5.5-2.22,10.97-4.59,17.07-4.63.93.23,1.86.47,2.79.7.24.16.48.32.72.48,1.85.67,3.7,1.34,5.56,2.01,2.33,1.93,4.97,3.48,7.06,5.71.58.62,1.31,1.13,2.12.4,1.03-.92.27-1.68-.37-2.36-2.5-2.65-5.19-5.04-8.68-6.33h-.02ZM154.06,171.96c.85,1.95,1.7,3.91,2.55,5.86.07,1.89,1.01,2.71,2.91,2.43.69-.1,1.4,0,2.09-.08,2.5-.26,2.66-.59,1.76-3.38-.35-2.03-1.14-3.87-2.34-5.54-.01-1.42-.76-2.09-2.15-2.1-2.04,0-4.09,0-6.18,0-.1,1.4.48,2.17,1.36,2.79ZM180.81,256.86c-.78-.08-1.58-.22-2.11.59-.22.02-.45.05-.67.09-3.84.18-7.61-.55-11.42-.74-2.45-.12-2.9.54-2.51,2.84.42,2.5,1.08,4.99,1.18,7.51.09,2.1,1.12,2.86,2.86,3.28,4.17.99,8.33,2.02,12.67,1.74,5.46,1.22,10.87.91,16.86-.32-3.32-3-5.57-6.28-9.13-8.17l-.1-1.35c.01-1.37.06-2.74.03-4.11-.06-2.67-.08-2.67-2.61-2.15-1.67.34-3.31.9-5.05.79ZM164.64,196.52c-5.17.3-10.26,1.36-15.45,1.41-2.64.24-2.74.22-3.27,2.96-1.11,5.73-2.45,11.37-4.42,16.88-1.88,5.28-4.06,10.41-6.32,15.53-.54,1.21-1.09,2.23.14,3.45,5.64,5.58,11.51,10.89,17.61,15.96,1.23,1.02,2.11,1.04,3.27-.06,4.06-3.85,8.25-7.56,12.08-11.65,1.3-1.39,1.83-2.79,1.76-4.67-.45-12.11-.94-24.23-2.12-36.3q0-3.7-3.29-3.51ZM180.78,119.29c2-.17,2.79-1.97,4.1-3.06,4.99-4.13,5.9-9.46,4.57-15.48-.45-2.04-.61-4.13-.98-6.19-.19-1.03.74-2.78-.91-2.89-1.35-.09-1.38,1.75-1.61,2.79-.61,2.75-.28,5.59-.24,8.38.06,4.66-.8,9-3.48,12.93-.7,1.04-1.38,2.18-1.46,3.52-.33.11-.39.22-.16.27.03,0,.1-.18.16-.27ZM192.96,39.22c-.31-3.17-1.25-6.07-3.38-8.64-.25.36-.45.52-.46.7-.55,8.16-3.96,14.73-10.72,19.47-.7.49-1.15,1.08-1.22,1.99-.17,2.08-.42,4.16-.63,6.24-.38.3-.63.67-.68,1.16-.26,2.68,1.23,4.42,3.27,5.71,2.02,1.28,4.2,1.33,6.23-.08,1.24-.86,2.23-2.01,3.14-3.23,3.29-4.42,4.75-9.58,5.48-14.87.38-2.76.88-5.83-1.02-8.44ZM91.71,275.04c2.97,1.38,6.09.4,9.13.57,3.7-.4,7.34-1.07,10.81-2.47.74-.3,1.62-.42,1.72-1.47.35-3.72,1.45-7.27,2.56-10.81.44-1.39-.05-1.98-1.44-1.97-2.21.01-4.42.02-6.63.03-3.84-1.17-7.67-2.38-11.53-3.47-1.13-.32-2,.29-2.53,1.37-.36.74-.57,1.5-.74,2.31-.82,4.11-2.02,8.07-4.5,11.55-.79,1.11-2.17,2.3-1.41,3.66.77,1.37,2.55.47,3.87.66.23.02.46.04.69.06ZM117.63,30.22c-.2.28-.52.52-.59.83-2.5,10.87-.21,20.77,6.31,29.68,2.12,2.89,5.19,4.05,8.9,3.37,3.43-.63,5.8-2.24,6.39-5.87.06-.21.11-.41.16-.62.31-.18.47-.43.32-.8-.34-4.19-2.25-7.34-5.55-10.05-6.07-4.98-10.51-11.2-12.67-18.9-.32-1.13-.36-2.49-1.51-3.41-.91,1.94-1.78,3.72-1.76,5.78ZM189.9,235.72c-.01-.12,0-.24-.04-.35-1.59-3.62-5.4-4.97-7.87-7.69-.17-.18-.7-.2-.98-.09-2.19.88-2.27-.45-2.35-2.05-.14-2.66-2.91-6.85-5.4-8.29-.37,3.66-.14,7.25-.13,10.83,0,.85.58,1.2,1.33,1.34.2,2.11-.91,4.06-.7,6.2.3,3.06.2,6.05-2.57,8.2-.21.16-.17.65-.25.99-3.15,1.23-4.81,3.96-7.25,6.55,6.51,2.22,12.49,2.32,18.55.94.5-.11.55-.69.67-1.13,1.93-.11,3.92.3,5.74-.79,5.07-3.04,6.77-10.69,1.27-14.65ZM110.67,254.62c2.93.27,5.85.02,8.66-.75,5.45-1.49,10.21-3.97,12.33-9.73,2.53-3.74,2.61-3.92-.11-6.73-1.31-1.36-1.31-2.52-.48-4.04,1.46-2.66,2.8-5.37,3.58-8.34.21-.81.62-1.58-.24-2.21-.94-.69-1.7-.22-2.5.4-3.14,2.42-6.52,4.48-9.86,6.59-1.86,1.17-4.41,1.56-5.51,3.53-1.2,2.13-2.47,2.92-4.76,1.98-.37-.15-.91.03-1.34.16-5.79,1.71-11.57,3.47-17.38,5.15-.98.28-1.51.84-1.25,1.72.82,2.77,1.46,5.59,4.13,7.44,4.46,3.09,9.45,4.34,14.73,4.83ZM126.75,183.75c-.31-.68-.84-1.24-1.56-1.24-2.23,0-4.34-.65-6.48-1.08-1.66-.33-1.76.42-1.76,1.62,0,1.43,1.02,1.93,2.07,2.5.76.41,2.02.19,2.34,1.54-1.19.35-1.97-.46-2.88-.44-1.21.03-2.03.51-2.16,1.78-.12,1.18.32,2.12,1.58,2.29,3.42.46,6.75,1.54,10.24,1.52,2.85,1.23,5.99,1.13,8.91,1.23,10.56.36,21.18.89,31.64-1.36,1.36-.29,2.7-.7,4.04-1.06,1.13-.31,2.44-.57,2.26-2.14-.21-1.82-1.71-1.58-2.97-1.59-1.16,0-2.31.02-3.45.39-.74.24-1.6.56-2.34-.13,2.19-1.16,4.63-1.51,6.94-2.25,1.34-.43,1.45-1.39,1.28-2.48-.2-1.31-1.29-1.25-2.18-1.07-3.3.66-6.62,1.17-9.97,1.55-6.12.69-12.28,1.09-18.41.96-3.1-.06-6.26-.32-9.38-.61-.82-.82-1.85-.52-2.82-.52-1.69-.21-3.32.13-4.93.59ZM100.15,234.67c12.67-3.2,23.85-9.05,33.53-17.94,4.42-4.06,7.4-8.6,8.2-14.54,1.33-4.46,1.12-4.97-3.39-4.96-7.06.02-13.92-1.25-20.71-2.92-2.34-.58-3.73.04-5.05,1.81-2.1,2.8-4.25,5.55-6.45,8.26-3.76,4.62-6.8,9.76-10.36,14.52-3.91,5.23-7.82,10.46-11.05,16.16-.39.7-1.15,1.4-.62,2.21.52.81,1.47.44,2.25.3,4.58-.8,9.16-1.63,13.64-2.91ZM122,73.78c-.13.35-.26.7-.4,1.05-2.09.97-2.78,3.06-3.74,4.88-1.99,3.74-3.11,7.77-3.82,11.93-.14.82-.43,1.63-1.41,1.78-.98.15-1.47-.55-1.9-1.26-.88-1.46-1.43-3.13-2.88-4.41-1.45,1.83-1.65,3.57-.89,5.61.52,1.41,1.45,2.92.42,4.51-1.3-.14-.78-1.8-2.16-1.9-.26.77-.65,1.58-.81,2.45-.66,3.47-.2,4.16,3.38,4.03,2.41-.09,3.67.83,4.35,3.05,1.27,4.12,3.67,7.62,6.9,10.36,8.69,7.4,18.96,11.15,30.21,12.4,10.48,1.22,19.2-2.45,26.66-9.6,4.07-3.91,6.25-8.68,6.16-14.35-.09-5.74.29-11.4,1.97-16.94.5-1.66.64-3.44.82-5.17.34-3.14.29-6.29.02-9.43-.14-1.65-.57-2.78-2.72-2.71-2.84.1-5.05-1.54-7.07-3.39-.67-.61-.97-1.59-2.16-2.03-.4.6-.84,1.26-1.28,1.91-1.69,2.54-3.63,4.86-6.05,6.74-2.55,2-3.04,1.96-5.15-.49-3.13-3.63-6.45-7.06-10.33-9.91-2.4-1.77-4.95-3.29-7.73-4.73-.41.98-.68,1.62-.95,2.25-2.19,5.02-5.46,7.18-10.87,7.11-1.28-.02-2.56-.15-3.84-.23-.21-.48-.67-.59-1.08-.79-2.29-1.05-2.57-.95-3.43,1.44-.68,1.91-.51,3.87-.23,5.82ZM157.75,41.27c-4.95.31-9.06,2.71-13.47,4.06-1.1.34-2.09,1.02-3.13,1.55-.85.43-1.22,1.08-.82,2,1.41,3.21,1.96,7.02,6.08,8.33,1.19.38,2.28,1.17,3.3,1.93,4.46,3.35,8.89,6.76,12.23,11.31.83,1.13,1.64,1.24,2.54.21.92-1.05,1.66-2.26,2.64-3.23,4.19-4.16,5.56-9.52,6.56-15.05.22-1.23-.29-2.37-1.06-3.23-4.02-4.49-8.91-7.37-14.87-7.88ZM210.24,193.59c0,1.98-.04,3.97,0,5.95.12,4.67,1.09,9.16,3.02,13.43.33.72.57,1.62,1.61,1.61.95-.01,1.38-.74,1.75-1.49.2-.42.41-.84.64-1.24,3.92-6.87,5.99-14.35,6.84-22.13.27-2.53.94-5.03.85-7.6-.08-2.28-.58-2.84-2.7-2.34-2.82.66-5.72.88-8.5,1.8-2.71.9-3.4,1.49-3.49,4.33-.09,2.56-.02,5.13-.02,7.7ZM175.44,160.22c-1.42,1.11-2.58,2.06-3.78,2.96-1.21.91-2.44,1.79-3.69,2.64q-3.65,2.49-2.06,6.43c.3.75.58,1.52.84,2.29q1.43,4.23,5.71,3.5c3.32-.56,5.78-4.49,4.48-7.54-1-2.34-1.27-4.67-1.13-7.14.05-.9.28-1.83-.38-3.14ZM83.98,132.33c0,1.85,2.76,7.25,4.17,8.22.78.53,1.64.64,2.19-.11,1.44-1.97,2.99-3.88,3.94-6.16.31-.74.02-1.34-.8-1.63-2.3-.84-4.56-1.79-6.88-2.52-2.11-.66-2.63-.15-2.63,2.2ZM152.4,131.92c-1.43,0-2.71-.02-3.99,0-.68.01-1.44-.04-1.78.76-.35.84-.21,1.67.48,2.21,1.55,1.21,3.18,2.31,4.76,3.48.7.52,1.33.38,1.86-.18,1.61-1.7,3.44-3.1,5.44-4.29.62-.37,1.24-.86.94-1.65-.34-.87-1.16-1.21-2.02-.86-1.92.79-3.9.37-5.7.5ZM109.94,83.01c.06,1.15.13,2.17,1.32,2.32,1.01.13,1.29-.81,1.66-1.52.11-.21.23-.41.3-.63.93-3.13,2.14-6.13,4-8.84.56-.82.76-1.9-.2-2.47-1.01-.61-2.05-.21-2.69.84-.9,1.49-1.92,2.93-2.58,4.53-.79,1.91-1.58,3.87-1.81,5.78Z"/>
      <path class="cls-8" d="M229.43,179.46c-3.51-1.18-6.9-2.75-10.69-2.89-2.02-1.32-4.31-2.33-5.26-4.81-.45-1.26-.77-2.65-2.54-2.64-.49-2.86-.72-3.09-3.49-3.51.2-.89,1.13-1.7.3-2.71-.09-1.58-.06-3.19-1.33-4.42-1.72-8.27-.18-16.03,3.74-23.37,1.37-2.57,2.91-5.08,4.59-7.45,1.38-1.95,2.45-1.72,3.48.45,1.3,2.73,2.03,2.94,4.26,1,3.86-3.36,5.17-7.66,4.37-12.63-.32-1.96-.77-3.9-1.22-5.83-1.6-6.84,2.59-17.16,11.57-21.75.43-.22.91-.46,1.31-.18.53.38.53,1.01.31,1.59-.34.87-.77,1.71-1.08,2.58-2.03,5.64-.54,10.6,4.26,14.23.93.71,1.88,1.38,2.81,2.09,6.52,4.96,8.16,10.38,5.51,18.2-.34.99-.74,1.97-1.09,2.96-.53,1.46-.57,2.97-.4,4.5.05.47.19.97.72,1.07.51.1.89-.24,1.06-.7.34-.87.61-1.76.95-2.63,1.6-4.11,4.89-6.21,8.68-7.73.82,1.05.28,1.66-.05,2.21-2.49,4.11-2.5,8.41-1.06,12.83.72,2.22,1.53,4.41,2.25,6.63,3.2,9.92.29,19.44-7.71,26.16-6.05,5.08-12.96,7.23-20.76,6.85-1.16-.06-2.33-.06-3.49-.1ZM239.01,174.69l-.02.02c2.43.2,4.57-.88,6.72-1.68,7.48-2.76,13.34-11.77,12.95-19.07-.3-5.69-2.62-10.75-4.37-16.25-.63.45-1.08.64-1.35.98-2.05,2.63-4.72,2.16-6.91-.87-.96-1.33-1.21-2.95-1.03-4.62.27-2.55.92-5.01,1.74-7.44.7-2.07,1.28-4.19,1.04-6.43-.36-3.39-2.94-5.08-5.22-7.06-2.95-2.56-6.43-4.62-7.91-8.59-.68-1.83-1.22-3.68-1.46-5.65-1.28.21-1.6,1.12-2.06,1.91-2.65,4.57-2.44,9.36-.98,14.19.88,2.94,1.55,5.81.43,8.87-1.64,4.47-3.82,8.5-8.2,10.89-1.15.63-2.26,1.06-3.64.47-2.82-1.22-3-1.05-4.53,1.51-2.43,4.07-3.87,8.55-4.49,13.14-.69,5.12-.15,10.23,3.38,14.5.15,1.59,1.03,2.5,2.59,2.75.22.64.32,1.55,1.31,1.08.72-.34,1.27-1.03,1.96-1.45,2.22-1.34,4.5-1.26,6.93-.34-.6.99-1.39.57-2,.75-1.67.49-3.4.86-4.79,2.01-1.25,1.04-1.25,1.76.07,2.76,3.16,2.39,6.71,3.68,10.69,3.65.08.97.66,1.31,1.58,1.39,2.42.2,4.73-.07,6.87-1.29.3.37.52.24.69-.12Z"/>
      <path class="cls-8" d="M55.2,188.13c-1.23-.18-2.45-.31-3.61.31-4.67-.37-9.29-.88-13.55-3.1-4.54-2.36-8.36-5.53-11.36-9.67-4.49-6.2-4.64-13.02-2.69-20.08.65-2.36,1.5-4.67,2.25-7,1.35-4.24,1.3-8.28-1.64-11.94-.35-.44-.74-.9-.48-1.8,6.08.82,8.7,5.32,10.8,10.72,1.63-1.62,1.66-3.16.92-4.43-1.73-3-1.87-6.33-2.25-9.57-.53-4.5,1.38-8.22,4.63-11.22,1.54-1.42,3.3-2.6,4.93-3.93,4.93-4.01,6.1-9.24,3.47-15.04-.44-.97-1.87-2.05-.62-3.05,1.04-.83,2.22.34,3.12.95,5.82,3.95,12.77,12,9.83,22.84-.37,1.35-.61,2.73-.87,4.11-1.01,5.36,1.47,9.28,5.33,12.54,1.69,1.42,2.51,1.13,3.38-.88,1.19-2.76,1.94-2.88,3.9-.43,3.09,3.86,5.57,8.06,6.96,12.85.32,1.11.76,2.2,1.14,3.3.11,2.1.21,4.2.32,6.3.25,4.13-1.21,8.06-1.51,12.12-.53,1.84-2.52,2.86-2.74,4.88-1.65.15-1.93,1.67-2.71,2.7-1.5.59-1.61,2.84-3.52,2.94-1.31-.6-1.58-1.74-1.53-3.03,0,0,0,.08,0,.08.09-.06.23-.11.28-.19.12-.21.01-.39-.26-.5.38-1,1.48-1.58,1.58-2.74,2.75-2.08,4.8-4.62,5.52-8.11.74-3.63,1.18-7.19.76-10.98-.63-5.65-2.94-10.41-6.15-15.19-2.4,2.59-4.77,1.95-7.01.27-1.87-1.4-3.64-3.01-4.9-4.96-1.12-1.73-2.35-3.54-2.39-5.75-.06-3.26-.35-6.56.76-9.71,1.29-3.63.5-7.17-.43-10.64-.4-1.51-1-3.29-3.02-4.1-.31,1.37-.65,2.49-.81,3.62-.46,3.31-2.21,5.86-4.65,7.96-1.32,1.13-2.83,2.03-4.22,3.08-2.31,1.75-4.11,3.92-4.41,6.87-.26,2.54-.24,5.11.71,7.6,1,2.63,1.68,5.37,1.31,8.2-.25,1.99-.81,4.14-2.82,4.9-2.05.78-3.84-.38-5.21-2.01-.22-.26-.39-.56-.81-1.15-1.31,4.79-2.91,9.08-3.57,13.51-.7,4.71-.63,9.48,2.56,13.71,4.58,6.09,10.52,9.83,17.97,11.09,1.74.29,3.73.75,5.37-.63.23.03.45.09.67.16.38,1.98,1.97,1.22,3.1,1.26,1.45.06,2.61.2,2.36,2.08-1.4.29-2.79.58-4.19.87Z"/>
      <path class="cls-1" d="M242.25,76.09c1.79,2.2,3.07,3.84,4.41,5.43,4.16,4.93,2.04,11.59-3.4,13.45-.9-.35-.65-1.15-.59-1.79.22-2.38-.29-4.62-1.03-6.87-1.06-3.2-.67-6.36.61-10.23Z"/>
      <path class="cls-1" d="M65.86,130.43c-2.88-3.36-3.54-6.51-2.24-9.7,1.32-3.24,2.75-6.35,1.57-10.21,5.15,2.64,6.99,8.66,4.5,13.31-1.1,2.05-2.86,3.66-3.82,6.61Z"/>
      <path class="cls-1" d="M219,121.38c-.51-2.41-1.71-3.9-2.89-5.46-3.45-4.54-2.18-10.76,3.08-14.05-.31,3.5,1.33,6.27,2.32,9.25,1.2,3.61.55,7.01-2.51,10.26Z"/>
      <path class="cls-2" d="M126.74,67.3c1.28.08,2.56.21,3.84.23,5.41.07,8.68-2.09,10.87-7.11.28-.63.54-1.27.95-2.25,2.78,1.44,5.32,2.96,7.73,4.73,3.88,2.85,7.2,6.28,10.33,9.91,2.11,2.46,2.6,2.49,5.15.49,2.41-1.89,4.35-4.21,6.05-6.74.44-.66.88-1.31,1.28-1.91,1.19.44,1.5,1.42,2.16,2.03,2.02,1.85,4.23,3.49,7.07,3.39,2.15-.08,2.57,1.06,2.72,2.71.27,3.14.32,6.29-.02,9.43-.19,1.74-.32,3.52-.82,5.17-1.68,5.54-2.06,11.2-1.97,16.94.09,5.67-2.09,10.44-6.16,14.35-7.46,7.16-16.18,10.82-26.66,9.6.46-1.03-.19-1.06-.96-1.22-6.02-1.22-11.45-3.9-16.8-6.79-3.23-1.74-6.04-3.96-7.89-7.23-5.37-9.51-5.62-19.69-4.07-30.15.41-2.77,2.14-5.17,2.08-8.04.13-.35.26-.7.39-1.05,2.22-1.69,3.71-3.92,4.74-6.48ZM125.54,81.42c2.24.83,3.92,1.48,5.62,2.06,1.72.59,2.52,1.55,1.7,3.4-.74,1.65-.65,3.43-.57,5.16.33,7.66,8.59,11.94,15.03,7.81,1.2-.77,2.2-1.71,2.96-2.92.51-.81,1.01-1.51,2.22-1.13,2.65.84,3.84-1.13,4.92-2.91,1.24-2.05,1.74-4.25-.08-6.43-.17.32-.33.51-.37.73-.07.34-.03.7-.12,1.04-.87,3.45-2.23,4.01-5.12,1.97-2.57-1.81-5.04-3.76-7.54-5.67-2.32-1.77-4.72-3.38-7.35-4.66-3.9-1.9-7.3-.73-11.29,1.54ZM169.96,112.35c-.37-.8-.88-.77-1.32-.75-10.73.53-20.78-2.19-30.51-6.42-.43-.19-.85-.39-1.3-.51-1.14-.3-1.84.07-1.8,1.35.07,2.1.16,4.18.68,6.25,1.39,5.53,4.68,8.83,10.42,9.93,6.63,1.26,12.98.35,19.3-1.58.96-.29,1.81-.75,1.93-1.79.29-2.46,1.37-4.6,2.6-6.48ZM166.3,89.43c-1.28,2.22-1.21,4.46.23,5.8,1.37,1.28,1.88,2.77,2.64,4.26,1.72,3.34,4.53,3.91,7.43,1.54,1.39-1.14,2.32-2.57,2.83-4.31.76-2.61.95-5.27.62-7.96-.2-1.66-.15-3.05,1.92-3.41.56-.1,1.17-.34,1.05-1.11-.09-.64-.63-1-1.15-1.22-2.03-.85-3.89-.5-5.48,1.01-2.2,2.08-4.34,4.23-6.54,6.3-2.12,1.99-2.15,1.96-3.56-.9Z"/>
      <path class="cls-9" d="M168.97,138.47c1.78-1.06,3.56-2.13,5.34-3.19.44.03.7-.19.84-.59.58-.4,1.15-.81,1.73-1.19,4.43-2.86,4.41-2.8,9.29-.86,1.56.62,1.98,1.51,1.4,2.95-1.09,2.7-2.09,5.45-3.62,7.96-3.99,6.54-8.96,12.18-15,16.94-6.72,5.29-13.94,6.58-21.99,3.72-7.54-2.68-14.56-6.22-20.76-11.37-6.19-5.15-11.89-10.87-18.35-15.7-2.34-1.75-4.69-3.47-7.04-5.2-.14-.38-.38-.59-.8-.56,0,0-.07-.04-.07-.05.27-1.31,1.21-1.45,2.35-1.53,1.67-.11,3.21.51,4.81.74,3.66.53,7.39.94,10.85,2.32,5.39,2.15,10.66,4.61,16.04,6.79,2,.81,3.74,2.44,6.13,2.13,2.1,1.64,4.79,2.07,7.04,3.41.85.34,1.76.6,2.55,1.05,3.24,1.86,6.18,1.14,9.08-.82,2.11-1.42,4.4-2.57,6.42-4.09,1.26-.95,3.1-1.16,3.78-2.86Z"/>
      <path class="cls-9" d="M85.4,51.4c.12-.15.28-.24.48-.25.44,0,.74-.21.89-.63,6.46-5.37,13.26-10.22,21.02-13.58,4.66-2.01,4.88-1.95,4.75,2.92-.16,6.26,1.7,11.97,4.72,17.28,1.28,2.24,1.07,3.6-.54,5.49-2.8,3.28-4.8,7.13-6.75,10.97-.63,1.24-1.33,2.44-2,3.66-.47.18-.67.52-.59,1.02-.09.67-.25,1.3-.75,1.81-.82.24-.9.84-.77,1.55.02.19-.04.34-.17.47-.58.32-.71.83-.63,1.43,0,0,0,0,0,0-1.73.74-1.47,2.21-1.35,3.64.02.2-.03.38-.15.55-.6.37-.68.93-.55,1.56.03.2-.02.38-.14.55-.62.39-.69.97-.53,1.62.05.18,0,.34-.11.49-.89.59-.76,1.44-.6,2.31.06.18.03.35-.08.51-.47.17-.57.39-.11.7-.2,1.4-.41,2.8-.61,4.2-.84,2.66-1.75,5.33.65,7.72.13.14.18.3.15.49-.38,1.07.48,2.76-1.52,3.01-4.52-4.48-5.84-9.83-4.42-15.98.58-2.51,1.49-4.89,2.33-7.31.82-2.36,2.24-4.53,2.48-7.02-.7-.4-1.05-.05-1.45.15-6.42,3.15-10.84.41-10.95-6.69-.05-3.25.3-6.46.52-9.69.82-2.83,2.7-5.05,4.25-7.47,1.11-.34,1.29-1.49,1.92-2.24.15-.18.13-.71-.02-.89-.17-.2-.67-.34-.89-.23-1.3.63-2.74,1.13-3.11,2.8-.44.39-.88.77-1.32,1.16-1.44,0-2.68.74-4.01,1.13-2.81.83-5.62,1.47-8.51.4-.11-1.39,1.44-2.04,1.48-3.36.14-.15.32-.23.52-.23.39,0,.67-.18.85-.53.13-.14.29-.22.48-.22.44.01.74-.19.92-.58.1-.14.23-.2.39-.18.47.04.79-.15.97-.59,0,0-.02.01-.02.01.37,0,.62-.19.77-.53.12-.15.27-.23.47-.24.44,0,.74-.2.9-.61,0,0,0,0,0,0,.25-.18.49-.35.74-.53Z"/>
      <path class="cls-12" d="M152.04,176.79c1.11,3.06.95,3.35-1.78,3.49-11.25.56-22.29-1.08-33.22-3.48-3.5-.77-4.05-1.68-3.78-5.33.09-1.13-.27-2.1-.82-2.97-1.29-2.05-1.28-4.09-.58-6.36.42-1.38,1.05-2.85.62-4.69-2.37,1.44-3.44,3.67-4.51,5.78-1.68,3.32-3.01,6.82-4.69,10.15-4.52,8.94-9.09,17.87-15.15,25.89-2.57,3.41-4.95,7.04-8.38,9.74-.22-1.32.49-2.47.71-3.71.9-5.22,1.25-10.49,1.65-15.76,1.17-.11,1.84-.98,2.5-1.77,3.49-4.2,7.07-8.34,10.37-12.69,3.82-5.04,6.62-10.67,9.08-16.49.86-2.03,1.19-4.03.98-6.12-.6-6.03-5.99-10.47-11.36-9.44.83-2.1,2.67-3.5,3.76-5.4.94-1.63,2.02-1.63,3.46-.73,3.37,2.1,6.4,4.66,9.53,7.09,4.16,3.23,7.49,7.37,11.78,10.42,7.22,5.13,14.25,10.6,23.01,13.02,1.25.35,2.53.71,2.65,2.35-8.01-.27-15.24-3.01-22.09-6.96-1.11-.64-2.2-1.35-3.38-1.83-1.39-.57-2.03.02-1.68,1.49.49,2.06,1.51,3.91,2.46,5.79.8,1.59,1.62,3.06,3.34,3.9,5.48,2.68,11.16,4.82,17.27,5.24,2.73.19,5.61.79,8.27-.59Z"/>
      <path class="cls-12" d="M88.64,64.34c-.22,3.23-.57,6.44-.52,9.69.1,7.09,4.53,9.84,10.95,6.69.41-.2.75-.55,1.45-.15-.24,2.49-1.66,4.66-2.48,7.02-.84,2.42-1.76,4.8-2.33,7.31-1.42,6.15-.09,11.49,4.42,15.98,2.57,3.18,5.25,6.34,8.7,8.51,5.04,3.18,9.74,7.03,15.67,8.65,1,.27,1.95.81,2.83,1.37,3.07,1.92,6.33,3.47,9.53,5.15,1.54.81,3.01,1.75,4.3,2.96.91.86,1.13,1.74.34,2.75-.42.54-.93,1.02-1.4,1.53-2.39.3-4.13-1.33-6.13-2.13-5.38-2.18-10.65-4.64-16.04-6.79-3.45-1.38-7.19-1.79-10.85-2.32-1.6-.23-3.13-.85-4.81-.74-1.15.08-2.08.21-2.35,1.53-2.61-1.21-5.21-2.41-7.9-3.66.73-1.17,1.68-1.23,2.56-1.28,3.96-.22,7.9-.41,11.84.59,5.78,1.47,11.46,3.16,16.89,5.66,1.53.7,3.11,1.58,5.31,1.08-1.9-1.83-3.83-3.08-5.9-4.07-5.9-2.81-11.96-5.11-18.22-7.1-7.23-2.3-13.62-6.56-19.75-11.13-3.79-2.83-6.36-6.42-8.3-10.63-1.08-2.35-1.33-4.76-.64-7.17,2.82-9.8,6.83-19.11,11.58-28.12.28-.54.65-.96,1.23-1.16Z"/>
      <path class="cls-9" d="M93.67,143.01c5.38-1.03,10.77,3.41,11.36,9.44.21,2.1-.12,4.09-.98,6.12-2.46,5.82-5.26,11.46-9.08,16.49-3.3,4.35-6.88,8.49-10.37,12.69-.66.79-1.33,1.66-2.5,1.77-.28-.06-.56-.11-.84-.17.03-6.05-1.28-11.81-3.67-17.34.29-4.07,1.76-7.99,1.51-12.12,3.51,1.34,7.08,2.56,10.25,4.67.1.19.18.42.32.58.42.49.92,1.21,1.6.67.65-.51.16-1.24-.22-1.77-.17-.24-.53-.34-.81-.5-1.63-3.38-4.95-4.74-8.13-6.61,1.67-2.65,4.12-4.45,5.98-6.76,1.91-2.36,3.3-5.11,5.58-7.17Z"/>
      <path class="cls-12" d="M100.15,234.67c-4.48,1.28-9.05,2.12-13.64,2.91-.79.14-1.73.5-2.25-.3-.53-.81.23-1.51.62-2.21,3.23-5.7,7.14-10.93,11.05-16.16,3.56-4.77,6.59-9.9,10.36-14.52,2.21-2.71,4.36-5.47,6.45-8.26,1.32-1.76,2.71-2.38,5.05-1.81,6.79,1.67,13.65,2.94,20.71,2.92,4.5-.01,4.72.5,3.38,4.96-.79-.88-1.84-.9-2.9-.89-3.03.03-6.04.09-9.04-.62-3.38-.8-6.34.42-8.42,2.95-2.08,2.52-4.56,4.68-6.52,7.28-4.99,6.59-9.4,13.58-13.9,20.51-.67,1.03-1.16,2.01-.96,3.24Z"/>
      <path class="cls-9" d="M100.15,234.67c-.2-1.24.29-2.22.96-3.24,4.5-6.93,8.91-13.92,13.9-20.51,1.97-2.6,4.44-4.76,6.52-7.28,2.08-2.52,5.04-3.74,8.42-2.95,2.99.71,6.01.65,9.04.62,1.07,0,2.11,0,2.9.89-.8,5.94-3.78,10.48-8.2,14.54-9.69,8.89-20.87,14.74-33.53,17.94Z"/>
      <path class="cls-6" d="M157.75,41.27c5.96.51,10.85,3.39,14.87,7.88.77.86,1.29,2,1.06,3.23-1,5.53-2.38,10.89-6.56,15.05-.98.98-1.72,2.19-2.64,3.23-.9,1.02-1.71.92-2.54-.21-3.34-4.56-7.77-7.96-12.23-11.31-1.02-.76-2.11-1.55-3.3-1.93-4.11-1.31-4.66-5.12-6.08-8.33-.4-.92-.03-1.57.82-2,1.04-.53,2.03-1.21,3.13-1.55,4.41-1.35,8.52-3.75,13.47-4.06Z"/>
      <path class="cls-15" d="M167.93,200.03c1.17,12.07,1.66,24.18,2.12,36.3.07,1.88-.46,3.28-1.76,4.67-3.84,4.09-8.03,7.8-12.08,11.65-1.16,1.1-2.04,1.08-3.27.06-6.1-5.07-11.98-10.38-17.61-15.96-1.23-1.22-.68-2.23-.14-3.45,2.26-5.11,4.44-10.25,6.32-15.53,1.96-5.51,3.3-11.16,4.42-16.88.53-2.74.64-2.72,3.27-2.96.5,1.77.79,3.57.73,5.41-.15.18-.39.34-.43.54-1.9,9.26-4.76,18.23-8.36,26.96-1.02,2.47-1.06,4.66,1.4,6.43,1.03.74,1.81,1.81,2.74,2.7,2.7,2.57,5.16,5.39,8.21,7.6,1.06.77,1.78.78,2.72-.11,2.19-2.09,4.53-4.02,6.78-6.04,2.36-2.12,3.22-4.42,3.24-7.62.07-11.08-.73-22.1-1.61-33.13.06-.23.12-.47.17-.7,1.05.02,2.1.04,3.15.07Z"/>
      <path class="cls-9" d="M207.76,162.9c.83,1.01-.11,1.82-.3,2.71-3.69,7.76-4.8,16.12-5.65,24.54-.44-.14-.96-.18-1.3-.45-2.89-2.33-5.74-4.72-8.61-7.07-3.81-3.12-6.16-7.11-7.68-11.8-1.44-4.44-1.59-8.95-1.22-13.45.2-2.4.63-5.12,3.29-6.47,1.16,1.57,2.39,3.09,3.47,4.71,1.26,1.91,1.2,1.97-.68,3.21-.75.49-1.73.75-1.9,2.12,2.48.29,4.82-1.65,7.56-.37-1.89,2.84-5.36,4.48-6.04,8.06.99.84,1.6.03,2.19-.38,1.14-.8,2.16-1.75,3.27-2.6,2.58-1.96,5.41-3.08,8.74-2.79,1.61.14,3.25.03,4.87.03Z"/>
      <path class="cls-12" d="M186.29,150.91c-2.66,1.35-3.1,4.06-3.29,6.47-.37,4.5-.22,9,1.22,13.45,1.52,4.69,3.87,8.68,7.68,11.8,2.87,2.35,5.72,4.74,8.61,7.07.34.27.86.31,1.3.45.09.66.18,1.32.26,1.98-.73,5.8.34,11.4,1.84,16.95-.43-.14-.97-.17-1.28-.45-8.22-7.23-16.36-14.52-22.25-23.93-1.71-2.73-2.47-5.12-.31-7.96,1.58-2.08,1.83-4.55.77-6.97-1.83-4.17-.94-8.51-.7-12.74.18-3,2.67-5.08,4.84-7.02.7-.63,1.22.07,1.31.89Z"/>
      <path class="cls-6" d="M55.2,188.13c1.4-.29,2.79-.58,4.19-.87,1.11-.23,2.23-.46,3.34-.69,2.42,1.28,5.03.65,7.56.73,3.26.1,3.71.54,3.88,3.89.2,3.97-.62,7.84-1.06,11.75-.43,3.82-.95,7.59-2.38,11.18-.21.54-.36,1.11-.62,1.62-1.06,2.03-2.46,2.36-4.18.82-2.72-2.44-4.44-5.58-5.89-8.89-.99-2.26-1.43-4.68-1.83-7.06-.72-4.24-2.26-8.27-3.01-12.49Z"/>
      <path class="cls-13" d="M134.5,183.68c3.12.29,6.28.54,9.38.61,6.13.13,12.29-.27,18.41-.96,3.35-.38,6.67-.9,9.97-1.55.89-.18,1.98-.24,2.18,1.07.17,1.09.06,2.05-1.28,2.48-2.31.74-4.75,1.09-6.94,2.25.74.69,1.6.38,2.34.13,1.14-.37,2.29-.4,3.45-.39,1.27,0,2.76-.23,2.97,1.59.18,1.58-1.12,1.83-2.26,2.14-1.34.37-2.68.77-4.04,1.06-10.46,2.26-21.08,1.72-31.64,1.36-2.92-.1-6.06,0-8.91-1.23.3-2.82.44-3.05,2.35-2.63,4.38.98,8.8.31,13.2.44.52.02.86-.26.87-.82-.32-.39-.78-.41-1.24-.51-4.41-.91-9.01-.86-13.22-2.73-1.27-.56-2.7-.8-3.35-2.25,1.61-.46,3.23-.8,4.93-.59.81.88,1.84.61,2.83.52Z"/>
      <path class="cls-3" d="M121.61,74.83c.06,2.87-1.67,5.27-2.08,8.04-1.55,10.45-1.31,20.64,4.07,30.15,1.85,3.27,4.67,5.49,7.89,7.23,5.35,2.88,10.78,5.57,16.8,6.79.78.16,1.42.19.96,1.22-11.26-1.24-21.52-5-30.22-12.4-3.23-2.74-5.62-6.24-6.9-10.36-.69-2.22-1.94-3.13-4.35-3.05-3.58.13-4.04-.56-3.38-4.03.16-.86.55-1.68.81-2.45,1.38.09.87,1.76,2.16,1.9,1.02-1.59.1-3.11-.42-4.51-.76-2.04-.56-3.78.89-5.61,1.45,1.28,2.01,2.96,2.88,4.41.43.71.92,1.41,1.9,1.26.98-.15,1.27-.96,1.41-1.78.71-4.16,1.83-8.2,3.82-11.93.97-1.81,1.65-3.9,3.74-4.88Z"/>
      <path class="cls-6" d="M131.66,244.14c-2.11,5.77-6.88,8.25-12.33,9.73-2.81.77-5.73,1.02-8.66.75-.09-1.6-1.38-2.38-2.37-3.31-1.31-1.24-2.18-2.71-2.87-4.33-.53-1.24-.74-2.56.18-3.64,1.27-1.5,2.55-3.07,4.48-3.81,4.66-1.79,9.15-3.95,13.59-6.22.93-.47,1.8-1.01,2.81-1.34,1.36-.44,1.75.13,1.62,1.31-.06.56-.26,1.15-.53,1.65-1.47,2.74-.34,4.9,1.49,6.89.78.85,1.52,1.78,2.6,2.31Z"/>
      <path class="cls-6" d="M210.25,193.59c0-2.57-.06-5.13.02-7.7.09-2.84.79-3.44,3.49-4.33,2.78-.92,5.68-1.14,8.5-1.8,2.12-.49,2.61.06,2.7,2.34.09,2.57-.57,5.07-.85,7.6-.84,7.78-2.92,15.26-6.84,22.13-.23.4-.44.82-.64,1.24-.37.76-.8,1.48-1.75,1.49-1.03.01-1.28-.89-1.61-1.61-1.93-4.27-2.91-8.76-3.02-13.43-.05-1.98,0-3.96,0-5.95Z"/>
      <path class="cls-4" d="M131.66,244.14c-1.08-.53-1.81-1.46-2.6-2.31-1.83-1.99-2.96-4.16-1.49-6.89.27-.5.47-1.09.53-1.65.13-1.19-.26-1.76-1.62-1.31-1.01.33-1.88.87-2.81,1.34-4.44,2.27-8.93,4.43-13.59,6.22-1.93.74-3.21,2.3-4.48,3.81-.92,1.08-.7,2.4-.18,3.64.69,1.62,1.56,3.09,2.87,4.33.99.93,2.28,1.71,2.37,3.31-5.28-.48-10.27-1.73-14.73-4.83-2.67-1.85-3.32-4.67-4.13-7.44-.26-.88.27-1.44,1.25-1.72,5.8-1.68,11.58-3.43,17.38-5.15.43-.13.97-.31,1.34-.16,2.29.93,3.56.15,4.76-1.98,1.1-1.97,3.66-2.36,5.51-3.53,3.35-2.11,6.73-4.17,9.86-6.59.8-.62,1.56-1.09,2.5-.4.85.63.45,1.4.24,2.21-.77,2.97-2.12,5.68-3.58,8.34-.83,1.52-.83,2.68.48,4.04,2.72,2.81,2.64,3,.11,6.73Z"/>
      <path class="cls-6" d="M170.93,244.81c.08-.34.04-.83.25-.99,2.77-2.15,2.87-5.14,2.57-8.2-.21-2.14.9-4.08.7-6.2.11-.79-.3-1.84.4-2.31,1.08-.73,1.57.56,2.25,1.05,4.03,2.92,8.22,5.56,12.79,7.56,5.51,3.97,3.81,11.61-1.27,14.65-1.82,1.09-3.8.69-5.74.79-1.57-1-3.36-.52-5.04-.75-5.18-.7-6.96-2.21-6.92-5.61Z"/>
      <path class="cls-9" d="M174.55,210.46c-.15-.12-.21-.27-.21-.46.03-.44-.15-.75-.54-.94,0,0-.02-.03-.02-.03-.13-.22-.26-.44-.39-.66-.47-.89-1.06-1.73-1.03-2.8.22-.38.62-.76.63-1.15.07-1.93.17-3.83-.43-5.76-.5-1.6-.07-1.88,1.66-1.72,1.24.12,2.5.14,3.75.2.48.32.66.8.74,1.34-.09,1.04-.08,2.02,1.3,2.2,6.87,10.83,13.21,21.94,18.33,33.71.13.3.33.62-.17,1.26-9.98-5.94-17.65-14.04-23.08-24.32,0-.4-.17-.69-.53-.88Z"/>
      <path class="cls-3" d="M138.8,57.61c-.05.21-.11.41-.16.62-1.16.04-2.32,0-3.47.12-2.81.3-4.89-.9-6.68-2.94-5.95-6.8-9.89-14.45-10.15-23.69-.02-.6-.19-1.13-.7-1.5-.02-2.06.85-3.84,1.76-5.78,1.14.92,1.19,2.28,1.51,3.41,2.16,7.7,6.6,13.92,12.67,18.9,3.3,2.71,5.21,5.87,5.55,10.05-.11.27-.21.53-.32.8Z"/>
      <path class="cls-13" d="M107.85,258.92c2.21,0,4.42-.02,6.63-.03,1.39,0,1.88.58,1.44,1.97-1.11,3.54-2.21,7.09-2.56,10.81-.1,1.06-.98,1.18-1.72,1.47-3.47,1.4-7.11,2.06-10.81,2.47-2.98-1.27-6.09-.35-9.13-.57-.23-.02-.46-.04-.69-.06,1.42-5.32,4.69-8.19,10.35-7.74.79.06,1.83.47,2.42-.52-.77-1.87-3.12-1.66-4.06-3.35.95-1.32,2.49-1.68,3.83-2.24,1.5-.62,3.06-1.07,4.29-2.21Z"/>
      <path class="cls-9" d="M152.04,176.79c-2.66,1.39-5.54.78-8.27.59-6.12-.43-11.79-2.56-17.27-5.24-1.72-.84-2.54-2.31-3.34-3.9-.95-1.88-1.96-3.73-2.46-5.79-.35-1.47.29-2.05,1.68-1.49,1.18.48,2.27,1.19,3.38,1.83,6.85,3.95,14.08,6.69,22.09,6.96,1.76,2.13,3.41,4.32,4.18,7.04Z"/>
      <path class="cls-9" d="M132.39,31.77c.46-.02.93-.04,1.39-.07.26.38.49.35.72-.03,1.87-.18,3.74-.18,5.61.05,1.13.9,2.29.82,3.48.13.7-.12,1.39-.12,2.06.15.99,1.6,2.26,1.13,3.56.48.45.07.9.15,1.35.22,2.77,2.22,6.01,2.57,9.39,2.29.18-.05.34-.01.49.1.4.67,1,.72,1.68.55.17-.04.31,0,.43.13.29.6.82.75,1.43.75.78.76,1.76,1.12,2.78,1.4.34.57.85.73,1.47.63,0,0,.02,0,.02,0-.04.86-.09,1.72-.13,2.58-1.85-.67-3.7-1.34-5.56-2.01-.24-.16-.48-.32-.72-.48-.93-.23-1.86-.47-2.79-.7-2.15-1.34-4.5-.88-6.69-.39-3.6.8-7.07,2.11-10.41,3.71-2.34,1.12-4.72,1.87-7.35,1.54-1.81-1.21-3.39-2.64-4.46-4.57,0-.49-.24-.8-.71-.92-.67-.55-1.13-1.23-1.29-2.09.1-1.05.07-2.19,1.59-2.19,1.09,0,2.09-.2,2.68-1.26Z"/>
      <path class="cls-6" d="M180.8,272.16c-4.34.28-8.5-.75-12.67-1.74-1.74-.41-2.77-1.18-2.86-3.28-.11-2.51-.77-5.01-1.18-7.51-.38-2.31.06-2.97,2.51-2.84,3.81.19,7.59.92,11.42.74-.01,1.27-.08,2.53-.03,3.8.08,2.25.36,2.43,2.7,2.45,1.07,0,2.04-.3,3.01-.66,1.53-.57,3.1-.86,4.73-.8.03.45.07.9.1,1.35-6.18,1.24-7,3.73-7.73,8.48Z"/>
      <path class="cls-13" d="M117.63,30.22c.52.37.69.9.7,1.5.26,9.24,4.19,16.88,10.15,23.69,1.79,2.05,3.87,3.25,6.68,2.94,1.15-.12,2.31-.09,3.47-.12-.59,3.63-2.95,5.24-6.39,5.87-3.71.68-6.78-.48-8.9-3.37-6.52-8.91-8.8-18.81-6.31-29.68.07-.31.39-.55.59-.83Z"/>
      <path class="cls-10" d="M164.07,134.88c2.9-2.53,6.11-4.6,9.51-6.37,5.53-2.88,10.34-6.76,14.83-11.01,4.63-4.38,5.63-10.06,4.74-16.11-.82-5.53-1.92-11.01-2.86-16.52-.2-1.14-.25-2.31-.37-3.47.61-.46,1-1.55,2.05-.7,2.16,7.97,3.84,16.04,4.75,24.25.58,5.27-.93,9.84-4.9,13.58-2.47,2.32-5.01,4.49-7.88,6.31-3.03,1.93-5.96,4.01-8.94,6.02-1.44.97-2.71,2.22-4.48,2.61-1.37-.25-2.38.5-3.4,1.21-.99.7-1.98,1.11-3.05.19Z"/>
      <path class="cls-3" d="M176.55,58.97c.21-2.08.46-4.15.63-6.24.07-.91.52-1.5,1.22-1.99,6.76-4.73,10.17-11.31,10.72-19.47.01-.17.22-.33.46-.7,2.13,2.57,3.07,5.47,3.38,8.64-.15,1.5-.19,3.02-.46,4.5-.98,5.36-3.99,9.69-7.66,13.45-2.14,2.2-5.07,3.33-8.3,1.8Z"/>
      <path class="cls-10" d="M140.1,141.79c.47-.51.97-.99,1.4-1.53.78-1.01.57-1.89-.34-2.75-1.28-1.22-2.76-2.16-4.3-2.96-3.2-1.68-6.47-3.22-9.53-5.15-.88-.55-1.83-1.1-2.83-1.37-5.92-1.62-10.62-5.47-15.67-8.65-3.45-2.17-6.13-5.33-8.7-8.51,2-.25,1.14-1.94,1.52-3.01,3.64,7.29,10.3,11.02,17.06,14.76,6.87,3.8,14.35,6.46,20.77,11.1,4.05,2.93,8.09,5.86,11.65,9.38-.8.01-1.6.05-2.39.04-1.45-.02-1.66.91-1.59,2.05-2.25-1.34-4.94-1.77-7.04-3.41Z"/>
      <path class="cls-4" d="M107.85,258.92c-1.23,1.13-2.79,1.58-4.29,2.21-1.35.56-2.88.92-3.83,2.24.94,1.7,3.29,1.49,4.06,3.35-.59.99-1.63.58-2.42.52-5.66-.45-8.93,2.42-10.35,7.74-1.32-.19-3.1.71-3.87-.66-.76-1.35.62-2.55,1.41-3.66,2.47-3.47,3.67-7.44,4.5-11.55.16-.81.38-1.57.74-2.31.53-1.08,1.4-1.69,2.53-1.37,3.86,1.1,7.69,2.31,11.53,3.47Z"/>
      <path class="cls-9" d="M175.44,160.22c.66,1.31.43,2.24.38,3.14-.14,2.47.13,4.8,1.13,7.14,1.3,3.05-1.16,6.97-4.48,7.54q-4.28.73-5.71-3.5c-.26-.77-.53-1.54-.84-2.29q-1.59-3.95,2.06-6.43c1.25-.85,2.48-1.73,3.69-2.64,1.2-.9,2.36-1.84,3.78-2.96Z"/>
      <path class="cls-13" d="M176.55,58.97c3.22,1.53,6.16.4,8.3-1.8,3.66-3.76,6.68-8.09,7.66-13.45.27-1.48.31-3,.46-4.5,1.91,2.62,1.41,5.68,1.02,8.44-.74,5.29-2.2,10.44-5.48,14.87-.91,1.23-1.9,2.37-3.14,3.23-2.03,1.41-4.21,1.36-6.23.08-2.04-1.29-3.53-3.04-3.27-5.71.05-.49.3-.86.68-1.16Z"/>
      <path class="cls-6" d="M126.75,183.75c.65,1.45,2.08,1.69,3.35,2.25,4.22,1.87,8.82,1.82,13.22,2.73.46.09.92.12,1.24.51-.02.56-.35.84-.87.82-4.4-.13-8.82.54-13.2-.44-1.91-.43-2.04-.19-2.35,2.63-3.49.01-6.82-1.06-10.24-1.52-1.26-.17-1.71-1.11-1.58-2.29.13-1.26.95-1.75,2.16-1.78.92-.02,1.69.79,2.88.44-.32-1.35-1.58-1.13-2.34-1.54-1.05-.57-2.07-1.07-2.07-2.5,0-1.2.1-1.95,1.76-1.62,2.14.43,4.25,1.08,6.48,1.08.72,0,1.25.56,1.56,1.24Z"/>
      <path class="cls-15" d="M202.07,192.13c-.09-.66-.18-1.32-.26-1.98.85-8.42,1.96-16.77,5.65-24.54,2.77.41,3,.65,3.49,3.51-2.6,6.06-3.74,12.46-4.39,18.98-1.23,1.72-.05,3.79-.84,5.69-1.22-.56-2.43-1.11-3.65-1.67Z"/>
      <path class="cls-12" d="M147.14,145.2c-.06-1.14.14-2.07,1.59-2.05.8,0,1.6-.02,2.39-.04.51.27,1.01.56,1.54.79.42.18.86.3,1.33.46,2.22-4.42,6.09-7,10.07-9.47,1.08.92,2.06.51,3.06-.19,1.01-.71,2.03-1.46,3.4-1.21-.34,1.06-1.27,1.51-2.08,2.14-.93.73-2,1.43-2.18,2.77.98.72,1.85-.36,2.7.09-.68,1.7-2.52,1.91-3.78,2.86-2.02,1.52-4.32,2.67-6.42,4.09-2.9,1.96-5.84,2.68-9.08.82-.79-.45-1.7-.7-2.55-1.05Z"/>
      <path class="cls-13" d="M180.8,272.16c.73-4.75,1.55-7.24,7.73-8.48,3.56,1.88,5.81,5.17,9.13,8.17-6,1.23-11.41,1.54-16.86.32Z"/>
      <path class="cls-4" d="M180.78,119.29c.08-1.34.76-2.49,1.46-3.52,2.67-3.92,3.53-8.27,3.48-12.93-.03-2.79-.37-5.63.24-8.38.23-1.04.26-2.88,1.61-2.79,1.66.11.73,1.86.91,2.89.37,2.05.53,4.15.98,6.19,1.33,6.03.41,11.35-4.57,15.48-1.31,1.09-2.1,2.89-4.1,3.06h0Z"/>
      <path class="cls-8" d="M202.07,192.13c1.21.55,2.42,1.11,3.65,1.67.8-1.9-.39-3.97.84-5.69.02,1.04.11,2.09.04,3.12-.46,6.9.43,13.64,2.34,20.26.12.42.45.84.05,1.42-2.09-.72-3.74-2.05-5.07-3.82-1.5-5.55-2.58-11.16-1.84-16.95Z"/>
      <path class="cls-12" d="M76.94,58.99c2.89,1.07,5.7.43,8.51-.4,1.33-.39,2.57-1.12,4.01-1.13-1.39,3.15-4.25,5.19-6.07,8.02-.5.78-1.27.76-2.16.62-4.27-.65-7.03-3.47-9.47-6.64-.78-1.02-.18-1.74,1.12-1.71,1.14,1.13,2.55,1.36,4.06,1.25Z"/>
      <path class="cls-15" d="M77.59,172.02c2.39,5.53,3.7,11.29,3.67,17.34.11,2.63-2.46,3.64-3.42,5.62-.61-3.88-.68-7.82-1.42-11.7-.42-2.16-1.01-4.27-1.56-6.39.22-2.01,2.21-3.04,2.74-4.88Z"/>
      <path class="cls-8" d="M77.84,194.99c.96-1.98,3.52-2.99,3.42-5.62.28.06.56.11.84.17-.4,5.27-.74,10.54-1.64,15.76-.21,1.24-.93,2.39-.71,3.71-1.14,1.87-2.34,3.67-5,5.36,1.71-6.87,2.81-13.07,3.09-19.38Z"/>
      <path class="cls-4" d="M189.9,235.72c-4.57-2-8.76-4.64-12.79-7.56-.68-.49-1.17-1.78-2.25-1.05-.71.48-.3,1.52-.4,2.31-.75-.14-1.33-.5-1.33-1.34,0-3.58-.24-7.17.13-10.83,2.5,1.44,5.26,5.63,5.4,8.29.09,1.61.17,2.93,2.35,2.05.28-.11.82-.09.98.09,2.47,2.72,6.28,4.07,7.87,7.69.04.1.03.23.04.35Z"/>
      <path class="cls-6" d="M83.98,132.33c0-2.35.52-2.86,2.63-2.2,2.33.73,4.59,1.68,6.88,2.52.82.3,1.11.89.8,1.63-.95,2.28-2.5,4.19-3.94,6.16-.55.75-1.42.64-2.19.11-1.41-.97-4.18-6.38-4.17-8.22Z"/>
      <path class="cls-12" d="M149.92,203.35c.06-1.85-.23-3.64-.73-5.41,5.19-.05,10.29-1.11,15.45-1.41.05,1.15.1,2.29.14,3.44-.06.23-.12.47-.17.7-2.01-.28-3.9.21-5.67,1.04-2.88,1.36-5.87,1.86-9.02,1.63Z"/>
      <path class="cls-4" d="M170.93,244.81c-.04,3.4,1.75,4.91,6.92,5.61,1.69.23,3.47-.26,5.04.75-.12.44-.17,1.02-.67,1.13-6.06,1.37-12.04,1.28-18.55-.94,2.44-2.59,4.1-5.32,7.25-6.55Z"/>
      <path class="cls-13" d="M188.43,262.33c-1.63-.06-3.2.22-4.73.8-.97.36-1.94.67-3.01.66-2.34-.02-2.62-.21-2.7-2.45-.04-1.26.02-2.53.03-3.8.22-.04.45-.07.67-.09.77.02,1.55.11,2.11-.59,1.74.11,3.38-.45,5.05-.79,2.53-.51,2.55-.52,2.61,2.15.03,1.37-.02,2.74-.03,4.11Z"/>
      <path class="cls-4" d="M152.4,131.92c1.8-.13,3.79.28,5.7-.5.86-.35,1.68-.01,2.02.86.3.79-.32,1.28-.94,1.65-2.01,1.18-3.84,2.59-5.44,4.29-.53.56-1.16.69-1.86.18-1.58-1.17-3.21-2.27-4.76-3.48-.7-.54-.84-1.38-.48-2.21.34-.8,1.1-.75,1.78-.76,1.28-.03,2.56,0,3.99,0Z"/>
      <path class="cls-10" d="M62.73,186.57c-1.11.23-2.23.46-3.34.69.26-1.88-.91-2.02-2.36-2.08-1.13-.05-2.71.71-3.1-1.26,1.24-.03,2.49.04,3.72-.1,1.7-.18,3.41-.46,3.9-2.54,2-.09,3.53-1.7,5.55-1.75-.05,1.29.21,2.42,1.53,3.02-.06.38-.13.76-.19,1.15-2.08.61-3.91,1.71-5.71,2.87Z"/>
      <path class="cls-4" d="M109.94,83.01c.24-1.91,1.03-3.86,1.81-5.78.65-1.59,1.68-3.04,2.58-4.53.63-1.04,1.68-1.44,2.69-.84.96.58.76,1.65.2,2.47-1.86,2.72-3.07,5.71-4,8.84-.07.22-.19.42-.3.63-.37.71-.65,1.64-1.66,1.52-1.2-.15-1.26-1.17-1.32-2.32Z"/>
      <path class="cls-15" d="M161.03,171.27c1.2,1.67,1.99,3.51,2.34,5.54-2.25.34-4.51.68-6.76,1.02-.85-1.95-1.7-3.91-2.55-5.86,2.2-1.44,4.64-.5,6.97-.69Z"/>
      <path class="cls-10" d="M134.58,42.79c2.63.34,5.02-.42,7.35-1.54,3.34-1.59,6.81-2.9,10.41-3.71,2.19-.49,4.53-.95,6.69.39-6.1.04-11.56,2.41-17.07,4.63-1.08.44-2.1,1.01-3.16,1.48-2.28,1.02-2.29,1.01-4.22-1.26Z"/>
      <path class="cls-10" d="M168.11,41.13c.04-.86.09-1.72.13-2.58,3.49,1.29,6.19,3.68,8.68,6.33.64.68,1.4,1.44.37,2.36-.82.73-1.55.22-2.12-.4-2.09-2.24-4.73-3.78-7.06-5.71Z"/>
      <path class="cls-12" d="M191.98,80.71c-1.05-.85-1.45.24-2.05.7-1.37-3.56-1.65-7.39-2.73-11.02-.12-.4.01-.93.17-1.34.11-.29.43-.58.72-.68.5-.18.9.11,1.05.6.33,1.1.65,2.21.92,3.33.66,2.8,1.28,5.61,1.92,8.41Z"/>
      <path class="cls-10" d="M177.97,197.14c-1.25-.06-2.5-.09-3.75-.2-1.73-.16-2.16.12-1.66,1.72.6,1.92.5,3.83.43,5.76-.01.39-.41.76-.63,1.15-1.24-2.81-.91-5.86-1.14-8.79-.17-2.15,2.2-1.91,3.57-2.54,1.18-.54,1.99-.17,2.52.98.29.62.71,1.2.67,1.93Z"/>
      <path class="cls-3" d="M126.74,67.3c-1.03,2.56-2.53,4.79-4.74,6.48-.29-1.95-.46-3.91.23-5.82.86-2.4,1.14-2.5,3.43-1.44.41.19.88.31,1.08.79Z"/>
      <path class="cls-3" d="M213.49,171.76c.95,2.48,3.24,3.49,5.26,4.81-1.78.9-3.77.94-5.65,1.42-1.09.28-1.53-.37-1.22-1.37.5-1.63.58-3.41,1.62-4.86Z"/>
      <path class="cls-5" d="M156.61,177.83c2.25-.34,4.51-.68,6.76-1.02.91,2.79.74,3.12-1.76,3.38-.69.07-1.4-.02-2.09.08-1.9.27-2.84-.54-2.91-2.43Z"/>
      <path class="cls-3" d="M161.03,171.27c-2.33.19-4.77-.75-6.97.69-.88-.62-1.46-1.39-1.36-2.79,2.1,0,4.14,0,6.18,0,1.39,0,2.14.68,2.15,2.1Z"/>
      <path class="cls-5" d="M164.78,199.96c-.05-1.15-.1-2.29-.14-3.44q3.29-.19,3.29,3.51c-1.05-.02-2.1-.04-3.15-.07Z"/>
      <path class="cls-10" d="M159.95,35c-3.39.28-6.62-.07-9.39-2.29,3.26.25,6.47.67,9.39,2.29Z"/>
      <path class="cls-3" d="M68.44,183.69c.06-.38.13-.77.19-1.15,1.91-.1,2.01-2.36,3.52-2.94q.88,4.27-3.71,4.09Z"/>
      <path class="cls-10" d="M76.94,58.99c-1.52.11-2.93-.12-4.06-1.25,1.79-.85,3.56-1.77,5.54-2.12-.03,1.32-1.59,1.98-1.48,3.36Z"/>
      <path class="cls-12" d="M90.78,56.31c.37-1.67,1.81-2.18,3.11-2.8.22-.11.72.03.89.23.16.18.18.71.02.89-.63.75-.81,1.91-1.92,2.24-.7-.19-1.4-.37-2.11-.56Z"/>
      <path class="cls-10" d="M132.39,31.77c-.59,1.06-1.59,1.25-2.68,1.26-1.52,0-1.49,1.14-1.59,2.19-1.76-2.61-1.59-3.18,1.15-3.47,1.03-.11,2.08,0,3.11.02Z"/>
      <path class="cls-10" d="M101.5,107.37c-2.4-2.39-1.49-5.06-.65-7.72.22,2.57.43,5.15.65,7.72Z"/>
      <path class="cls-6" d="M91.71,275.04c3.04.22,6.16-.7,9.13.57-3.05-.17-6.16.81-9.13-.57Z"/>
      <path class="cls-13" d="M90.24,163.55c.28.16.64.26.81.5.38.54.86,1.26.22,1.77-.68.54-1.18-.18-1.6-.67-.14-.16-.21-.38-.32-.58.3-.34.6-.68.89-1.02Z"/>
      <path class="cls-10" d="M149.21,32.48c-1.3.65-2.57,1.13-3.56-.48,1.27-.45,2.4.09,3.56.48Z"/>
      <path class="cls-10" d="M103.72,87.18c-.13-1.43-.39-2.9,1.35-3.64,0,1.38-.51,2.57-1.35,3.64Z"/>
      <path class="cls-10" d="M180.01,200.68c-1.38-.17-1.38-1.16-1.3-2.2.81.51,1.26,1.23,1.3,2.2Z"/>
      <path class="cls-10" d="M143.58,31.85c-1.19.68-2.35.76-3.48-.13,1.17-.23,2.33-.26,3.48.13Z"/>
      <path class="cls-6" d="M134.5,183.68c-.99.09-2.01.36-2.83-.52.97,0,2-.3,2.83.52Z"/>
      <path class="cls-6" d="M180.81,256.86c-.56.7-1.35.61-2.11.59.53-.81,1.33-.67,2.11-.59Z"/>
      <path class="cls-10" d="M101.65,94.24c-.16-.86-.29-1.72.6-2.31.08.84.03,1.65-.6,2.31Z"/>
      <path class="cls-10" d="M162.11,35.65c-.67.17-1.28.12-1.68-.55.65-.09,1.23.04,1.68.55Z"/>
      <path class="cls-10" d="M163.97,36.52c-.61,0-1.14-.15-1.43-.75.61-.02,1.2.02,1.43.75Z"/>
      <path class="cls-10" d="M168.22,38.55c-.62.1-1.13-.06-1.47-.63.66-.19,1.14.05,1.47.63Z"/>
      <path class="cls-10" d="M105.87,81.64c-.13-.71-.05-1.31.77-1.55-.05.61-.23,1.17-.77,1.55Z"/>
      <path class="cls-10" d="M105.06,83.55c-.08-.61.06-1.12.63-1.43.07.6-.06,1.12-.63,1.43Z"/>
      <path class="cls-10" d="M103.02,89.28c-.13-.63-.05-1.19.55-1.56.1.62-.03,1.16-.55,1.56Z"/>
      <path class="cls-10" d="M102.36,91.45c-.16-.65-.1-1.22.53-1.62.11.63-.02,1.18-.53,1.62Z"/>
      <path class="cls-4" d="M180.78,119.29c-.05.1-.13.28-.16.27-.23-.05-.17-.16.16-.27h0Z"/>
      <path class="cls-10" d="M101.46,95.45c-.47-.31-.37-.54.11-.7-.04.23-.07.47-.11.7Z"/>
      <path class="cls-10" d="M107.38,78.29c-.08-.5.12-.84.59-1.02-.04.43-.23.78-.59,1.02Z"/>
      <path class="cls-13" d="M138.8,57.61c.11-.27.21-.54.32-.8.15.37,0,.62-.32.8Z"/>
      <path class="cls-10" d="M79.79,54.87c-.17.35-.45.53-.85.53.16-.37.44-.55.85-.53Z"/>
      <path class="cls-10" d="M81.19,54.07c-.18.39-.48.59-.92.58.19-.38.49-.58.92-.58Z"/>
      <path class="cls-10" d="M82.55,53.3c-.18.44-.5.63-.97.59.22-.37.54-.57.97-.59Z"/>
      <path class="cls-10" d="M83.3,52.79c-.14.34-.39.52-.77.53.11-.38.37-.56.77-.53Z"/>
      <path class="cls-10" d="M84.67,51.93c-.16.41-.46.61-.9.61.18-.37.49-.58.9-.61Z"/>
      <path class="cls-10" d="M85.4,51.4c-.25.18-.49.35-.74.53.1-.37.34-.57.74-.53Z"/>
      <path class="cls-10" d="M86.77,50.52c-.15.41-.45.62-.89.63.18-.38.47-.59.89-.63Z"/>
      <path class="cls-10" d="M161.83,38.64c.24.16.48.32.72.48-.24-.16-.48-.32-.72-.48Z"/>
      <path class="cls-10" d="M129.42,37.31c.47.12.71.43.71.92-.24-.31-.47-.61-.71-.92Z"/>
      <path class="cls-10" d="M134.49,31.67c-.22.38-.46.41-.72.03.24-.01.48-.02.72-.03Z"/>
      <path class="cls-12" d="M175.15,134.69c-.14.4-.4.62-.84.59.16-.37.43-.57.84-.59Z"/>
      <path class="cls-12" d="M100,131.38c.42-.03.67.18.8.56-.39-.01-.66-.19-.8-.56Z"/>
      <path class="cls-10" d="M174.55,210.46c.36.18.54.47.53.88-.36-.18-.55-.47-.53-.88Z"/>
      <path class="cls-10" d="M173.8,209.06c.39.19.58.51.54.94-.37-.21-.56-.52-.54-.94Z"/>
      <path class="cls-10" d="M173.39,208.37c.13.22.26.44.39.66-.35-.09-.51-.29-.39-.66Z"/>
      <path class="cls-15" d="M213.11,163.51c-3.54-4.27-4.07-9.38-3.38-14.5.62-4.59,2.06-9.07,4.49-13.14,1.53-2.56,1.71-2.72,4.53-1.51,1.38.59,2.49.16,3.64-.47,4.38-2.39,6.55-6.41,8.2-10.89,1.12-3.05.46-5.93-.43-8.87-1.46-4.84-1.66-9.62.98-14.19.46-.79.78-1.71,2.06-1.91.24,1.97.78,3.82,1.46,5.65,1.48,3.97,4.96,6.03,7.91,8.59,2.28,1.98,4.86,3.67,5.22,7.06.24,2.24-.35,4.36-1.04,6.43-.82,2.43-1.47,4.89-1.74,7.44-.18,1.66.07,3.29,1.03,4.62,2.19,3.03,4.86,3.5,6.91.87.26-.34.72-.53,1.35-.98,1.75,5.49,4.07,10.56,4.37,16.25.38,7.3-5.48,16.31-12.95,19.07-2.16.8-4.29,1.88-6.72,1.68,3.14-2.58,6.31-5.11,9.4-7.75,1.76-1.51,3.76-3.01,3.89-5.57.17-3.24.51-6.52-.65-9.68.19-1.71-.41-3.21-1.2-4.66-1.13-2.08-1.24-2.12-3.46-1.04-2.19,1.05-2.74.95-3.88-1.17-1.16-2.16-2.22-4.41-4.01-6.11-1.57-1.49-1.77-3.21-1.4-5.12.26-1.37.71-2.7,1.02-4.06.69-2.97.2-5.79-1.27-8.43-.35-.64-.68-1.53-1.92-1.19-.24,6.92-3.5,12.36-8.65,16.82-1.58,1.37-3.09,2.82-4.72,4.15-5.2,4.24-7.08,10.94-4.83,16.55-.81,2.43-3.55,3.51-4.21,6.05Z"/>
      <path class="cls-5" d="M251.63,151.71c1.16,3.16.82,6.44.65,9.68-.13,2.57-2.13,4.07-3.89,5.57-3.09,2.64-6.26,5.17-9.4,7.75,0,0,.02-.02.02-.02-.23.04-.46.08-.69.12-2.14,1.22-4.46,1.49-6.87,1.29-.91-.08-1.5-.42-1.58-1.39.55-.16,1.11-.31,1.66-.48,6.63-2.01,8.87-7.21,6.08-13.93-.31-.76-.61-1.65-1.63-1.44-.92.19-1.16,1.06-1.2,1.9-.06,1.27.05,2.56-.11,3.82-.26,2.1-.65,4.2-3.37,4.52l-.03-.03c-.04-1.87.1-3.69.53-5.54.61-2.61.11-3.13-2.65-3.59-2.26-.38-2.59-.86-2.18-3.27.21-1.26.53-2.5.74-3.76.15-.9-.21-1.65-1.07-1.98-.86-.33-1.62,0-2.11.77-.37.59-.67,1.23-.97,1.86-1.18,2.54-2.53,4.94-4.41,7.08-1.43,1.63-2.98,3.32-3.43,5.61-1.57-.26-2.45-1.16-2.59-2.75.66-2.53,3.4-3.62,4.21-6.05,1.6-1.42,2.49-3.34,3.53-5.14.52-.9.98-1.86,1.63-2.67,1.62-2.03,3.62-2.6,5.52-1.71,1.9.9,2.81,2.83,2.42,5.29-.15.91-.51,1.8-.62,2.71-.18,1.49.66,2.2,2.08,1.76.64-.2,1.2-.68,1.79-1.04.91-.56,1.87-1.13,2.94-.78,1.22.4,1.51-.18,1.99-1.15,1.05-2.14,2.77-3.41,5.31-3.14.82.09,1.6.11,2.33-.43,1.95-1.43,3.72-.77,5.4.56ZM244.68,161.05c-.11-1.39-.08-2.82-.37-4.17-.17-.8-.05-2.14-1.28-2.21-1.14-.06-1.91.8-2.26,1.88-.21.66-.4,1.38-.34,2.05.21,2.67.48,5.33.81,7.99.12.98.79,1,1.52.51,2.26-1.51,1.82-3.84,1.92-6.04ZM246.76,164.07c3.4-2.9,2.78-6.14,2.75-9.21,0-.6-.25-1.22-.86-1.38-.82-.22-1.28.45-1.56,1.07-.23.51-.31,1.11-.32,1.68-.03,2.42-.01,4.83-.01,7.85Z"/>
      <path class="cls-1" d="M215.7,166.26c.45-2.29,2-3.98,3.43-5.61,1.88-2.15,3.23-4.54,4.41-7.08.29-.63.59-1.27.97-1.86.49-.77,1.25-1.1,2.11-.77.86.33,1.22,1.07,1.07,1.98-.21,1.26-.52,2.5-.74,3.76-.41,2.41-.08,2.89,2.18,3.27,2.76.46,3.26.99,2.65,3.59-.43,1.85-.56,3.67-.53,5.54-.33.13-.38.25-.13.3.03,0,.1-.18.16-.27,2.71-.32,3.11-2.42,3.37-4.52.16-1.26.05-2.54.11-3.82.04-.84.29-1.71,1.2-1.9,1.03-.21,1.32.68,1.63,1.44,2.8,6.72.55,11.92-6.08,13.93-.55.17-1.11.32-1.66.48-3.99.02-7.54-1.27-10.69-3.65-1.32-1-1.32-1.71-.07-2.76,1.38-1.15,3.12-1.52,4.79-2.01.61-.18,1.4.24,2-.75-2.43-.92-4.71-.99-6.93.34-.69.42-1.24,1.1-1.96,1.45-.99.48-1.09-.44-1.31-1.08Z"/>
      <path class="cls-15" d="M238.32,174.82c.23-.04.46-.08.69-.12-.17.37-.39.49-.69.12Z"/>
      <path class="cls-15" d="M53.26,183.76c-1.65,1.37-3.64.92-5.37.63-7.45-1.26-13.38-5-17.97-11.09-3.19-4.23-3.26-9-2.56-13.71.66-4.43,2.26-8.72,3.57-13.51.41.59.59.89.81,1.15,1.37,1.62,3.16,2.78,5.21,2.01,2.01-.76,2.57-2.91,2.82-4.9.36-2.84-.31-5.58-1.31-8.2-.95-2.49-.97-5.06-.71-7.6.3-2.94,2.1-5.12,4.41-6.87,1.39-1.05,2.91-1.95,4.22-3.08,2.44-2.1,4.2-4.65,4.65-7.96.16-1.14.5-2.25.81-3.62,2.03.81,2.62,2.59,3.02,4.1.93,3.47,1.71,7.01.43,10.64-1.11,3.14-.82,6.45-.76,9.71.04,2.21,1.27,4.02,2.39,5.75,1.26,1.95,3.03,3.56,4.9,4.96,2.25,1.68,4.62,2.32,7.01-.27,3.2,4.78,5.52,9.54,6.15,15.19.42,3.78-.02,7.35-.76,10.98-.72,3.5-2.76,6.03-5.52,8.11-.29-1.45-.2-2.92-.45-4.4-.49-2.98-2.74-4.94-3.86-7.52.16-1.97,1.75-1.26,2.83-1.5.62-.51.61-1.22.6-1.92-.07-4.92-2.54-8.71-6-11.81-2.44-2.18-4.88-4.36-7.12-6.73-2.6-2.77-4.36-6.02-5.1-9.81-.22-1.12.71-3.1-1.1-3.14-1.46-.03-1.71,1.97-2.18,3.24-.24.64-.2,1.38-.25,2.08-.18,2.59.03,5.16.9,7.6.67,1.88.24,3.39-.91,4.88-1.71,2.22-3.31,4.49-4.47,7.08-.83,1.86-1.47,1.92-3.34,1.06-2.8-1.3-3.07-1.17-4.31,1.67-.34.78-.44,1.56-.46,2.38-1.4,5.03-.31,9.81,1.42,14.54.1.4.33.69.72.84l-.03-.03c.24.24.48.49.73.73l-.02-.03c.11.37.35.61.72.72v-.02c1.98,3.13,4.74,4.9,8.52,4.92.2.02.4.06.6.13.24.2.48.39.73.59,1.31.21,2.54.83,3.93.69,1.1-.11,1.94.38,2.48,1.36Z"/>
      <path class="cls-5" d="M53.26,183.76c-.54-.98-1.38-1.47-2.48-1.36-1.39.14-2.62-.48-3.93-.69-.24-.2-.48-.39-.73-.59-.19-.07-.39-.11-.6-.13-2.23-2.7-5.45-3.68-8.52-4.92,0,0,0,.02,0,.02-.24-.24-.48-.48-.72-.72,0,0,.02.03.02.03-.24-.24-.48-.49-.73-.73,0,0,.03.03.03.03-.24-.28-.48-.56-.72-.84-1.73-4.72-2.83-9.51-1.42-14.54,3.86-2.72,5.94-1.75,9.71,4.65,1.18-2.13,2.38-4.04,5.19-4.06,2.73-.02,3.7,2.25,5.44,4.19.26-2.07,0-3.53-.25-5.02-.44-2.69.74-4.82,2.94-5.67,2.06-.8,4.23-.05,5.57,2.32,1.44,2.56,3.4,4.69,5.14,7.01-1.08.24-2.67-.48-2.83,1.5-1.94-1.88-3.39-4.1-4.59-6.51-.52-1.05-1.31-1.63-2.54-1.25-1.05.33-1.35,1.15-1.42,2.16-.16,2.12.65,3.71,2.16,5.24,3.11,3.16,3.25,7.07,2.44,11.65-2.92-2.64-1.32-6.77-4.18-9.02-2.03,2.16-2.38,4.74-2.54,7.43-.16,2.73,1.18,4.62,3.14,6.27,1.4,1.18,3.14.62,4.68,1.05-.5,2.08-2.21,2.36-3.9,2.54-1.23.13-2.48.07-3.72.1-.22-.07-.44-.12-.67-.16ZM50.98,173.28c.34-2.15-.71-4.97-.72-7.87,0-1.04-.34-2.23-1.53-2.47-1.51-.29-1.99,1.06-2.32,2.12-.82,2.67-1.36,5.43-.93,8.22.3,1.97,1.01,3.83,2.89,4.92,1.77,1.03,2.54.63,2.61-1.36.03-.93,0-1.86,0-3.56ZM36.45,164.26c-.29,2.27.12,3.96.54,5.64.49,1.94,1.86,3.18,3.59,3.97,1.22.56,2.14-.18,1.81-1.5-.73-2.91-1.38-5.87-2.84-8.52-.55-.99-1.32-2.39-2.48-2.11-1.49.36-.47,1.98-.62,2.51Z"/>
      <path class="cls-1" d="M61.56,181.27c-1.54-.42-3.28.13-4.68-1.05-1.96-1.65-3.29-3.54-3.14-6.27.15-2.69.51-5.26,2.54-7.43,2.86,2.24,1.26,6.37,4.18,9.02.81-4.57.67-8.49-2.44-11.65-1.51-1.54-2.32-3.12-2.16-5.24.07-1,.37-1.83,1.42-2.16,1.22-.38,2.01.19,2.54,1.25,1.2,2.4,2.65,4.63,4.59,6.51,1.12,2.58,3.37,4.54,3.86,7.52.24,1.47.16,2.95.45,4.4-.11,1.16-1.2,1.74-1.58,2.74,0,.23-.01.46-.02.69,0,0,0-.08,0-.08-2.02.05-3.54,1.66-5.55,1.75Z"/>
      <path class="cls-10" d="M67.11,179.6c0-.23.01-.46.02-.69.27.11.38.29.26.5-.05.09-.18.13-.28.19Z"/>
      <path class="cls-14" d="M125.54,81.42c3.99-2.27,7.39-3.44,11.29-1.54,2.64,1.28,5.04,2.89,7.35,4.66,2.5,1.91,4.97,3.86,7.54,5.67,2.9,2.04,4.25,1.48,5.12-1.97.08-.33.04-.7.12-1.04.05-.21.2-.4.37-.73,1.81,2.19,1.31,4.38.08,6.43-1.07,1.78-2.26,3.74-4.92,2.91-1.21-.38-1.71.31-2.22,1.13-.76,1.21-1.76,2.15-2.96,2.92-6.43,4.13-14.69-.15-15.03-7.81-.08-1.74-.16-3.51.57-5.16.82-1.85.01-2.81-1.7-3.4-1.7-.58-3.38-1.24-5.62-2.06ZM148.97,94.36c-3.72-2.51-7.18-5.27-11.07-7.39-1.95-1.07-2.19-.95-2.75,1.27-.14.56-.29,1.13-.34,1.71-.4,4.54,3.12,8.91,7.3,9.01,3.32.08,5.27-1.93,6.87-4.6Z"/>
      <path class="cls-4" d="M169.96,112.35c-1.23,1.88-2.3,4.02-2.6,6.48-.12,1.04-.97,1.5-1.93,1.79-6.32,1.93-12.67,2.85-19.3,1.58-5.75-1.1-9.04-4.39-10.42-9.93-.52-2.06-.62-4.15-.68-6.25-.04-1.27.67-1.64,1.8-1.35.45.12.87.32,1.3.51,9.73,4.23,19.78,6.95,30.51,6.42.43-.02.94-.06,1.32.75ZM139.37,114.78c2.16,3.34,3.16,4.26,5.73,4.95,6,1.61,11.97,1.19,17.89-.5.44-.12.94-.29,1.23-.61.7-.76.74-1.42-.51-1.7-.38-.08-1.2.52-1.1-.58.96-.97,3.19-.31,3.29-2.61-9.93.03-19.23-2.4-28.17-6.29-.48,1.07.14,1.81.13,2.59-.02,1.87,1.03,2.52,2.69,3.03,2.64.81,5.15,2.07,7.97,2.29.4.03.83.27.88.81-3.28.87-6.36-.35-10.03-1.39Z"/>
      <path class="cls-4" d="M166.3,89.43c1.41,2.87,1.43,2.89,3.56.9,2.21-2.07,4.34-4.22,6.54-6.3,1.59-1.51,3.45-1.86,5.48-1.01.52.22,1.05.57,1.15,1.22.11.77-.49,1.01-1.05,1.11-2.07.36-2.13,1.75-1.92,3.41.33,2.68.14,5.34-.62,7.96-.51,1.73-1.44,3.17-2.83,4.31-2.9,2.37-5.71,1.8-7.43-1.54-.77-1.49-1.27-2.98-2.64-4.26-1.43-1.34-1.51-3.58-.23-5.8ZM177.06,89.08c-2.05,1.81-3.78,3.85-5.96,5.41-1.29.92-.96,3.19.44,4.56,1.07,1.04,2.53,1,3.73-.11,2.06-1.9,2.98-6.67,1.79-9.86Z"/>
      <path class="cls-9" d="M149.92,203.35c3.15.23,6.14-.27,9.02-1.63,1.77-.84,3.67-1.32,5.67-1.04.87,11.03,1.68,22.05,1.61,33.13-.02,3.2-.88,5.49-3.24,7.62-2.25,2.03-4.59,3.96-6.78,6.04-.94.89-1.66.88-2.72.11-3.04-2.21-5.51-5.03-8.21-7.6-.93-.88-1.71-1.96-2.74-2.7-2.46-1.77-2.42-3.95-1.4-6.43,3.6-8.73,6.46-17.7,8.36-26.96.04-.2.28-.36.43-.54Z"/>
      <path class="cls-11" d="M251.63,151.71c-1.68-1.33-3.45-1.99-5.4-.56-.73.53-1.51.51-2.33.43-2.55-.27-4.27,1-5.31,3.14-.47.97-.77,1.54-1.99,1.15-1.07-.35-2.03.23-2.94.78-.59.36-1.15.84-1.79,1.04-1.42.44-2.25-.27-2.08-1.76.11-.92.47-1.8.62-2.71.39-2.45-.51-4.39-2.42-5.29-1.89-.9-3.9-.32-5.52,1.71-.65.81-1.1,1.77-1.63,2.67-1.04,1.81-1.93,3.72-3.53,5.14-2.25-5.61-.37-12.3,4.83-16.55,1.63-1.33,3.13-2.78,4.72-4.15,5.15-4.46,8.4-9.9,8.65-16.82,1.24-.34,1.57.56,1.92,1.19,1.47,2.64,1.95,5.46,1.27,8.43-.31,1.36-.76,2.69-1.02,4.06-.37,1.91-.18,3.63,1.4,5.12,1.79,1.7,2.85,3.95,4.01,6.11,1.14,2.11,1.69,2.22,3.88,1.17,2.23-1.07,2.33-1.04,3.46,1.04.79,1.45,1.39,2.96,1.2,4.66Z"/>
      <path class="cls-1" d="M244.68,161.05c-.1,2.2.33,4.53-1.92,6.04-.73.49-1.4.47-1.52-.51-.33-2.65-.6-5.32-.81-7.99-.05-.67.14-1.39.34-2.05.34-1.08,1.11-1.94,2.26-1.88,1.23.07,1.11,1.41,1.28,2.21.29,1.35.26,2.78.37,4.17Z"/>
      <path class="cls-1" d="M246.76,164.07c0-3.02-.02-5.44.01-7.85,0-.56.09-1.17.32-1.68.28-.62.73-1.28,1.56-1.07.61.16.85.78.86,1.38.03,3.08.65,6.31-2.75,9.21Z"/>
      <path class="cls-5" d="M231.29,169.11c-.05.1-.13.28-.16.27-.25-.06-.2-.17.13-.3,0,0,.03.03.03.03Z"/>
      <path class="cls-11" d="M67.22,162.75c-1.74-2.31-3.7-4.45-5.14-7.01-1.34-2.38-3.51-3.12-5.57-2.32-2.2.85-3.38,2.99-2.94,5.67.24,1.49.51,2.94.25,5.02-1.74-1.94-2.71-4.21-5.44-4.19-2.81.02-4.01,1.93-5.19,4.06-3.77-6.4-5.85-7.37-9.71-4.65.02-.82.12-1.6.46-2.38,1.24-2.84,1.52-2.97,4.31-1.67,1.87.86,2.51.8,3.34-1.06,1.16-2.59,2.76-4.86,4.47-7.08,1.15-1.49,1.58-3,.91-4.88-.87-2.44-1.07-5.01-.9-7.6.05-.7,0-1.44.25-2.08.47-1.27.72-3.26,2.18-3.24,1.82.03.89,2.02,1.1,3.14.74,3.79,2.49,7.04,5.1,9.81,2.24,2.38,4.68,4.55,7.12,6.73,3.47,3.1,5.94,6.89,6,11.81,0,.7.02,1.41-.6,1.92Z"/>
      <path class="cls-1" d="M37.01,176.08c3.07,1.24,6.29,2.22,8.52,4.92-3.78-.02-6.54-1.79-8.52-4.92Z"/>
      <path class="cls-1" d="M36.29,175.38c.24.24.48.48.72.72-.38-.1-.61-.35-.72-.72Z"/>
      <path class="cls-1" d="M35.59,174.67c.24.24.48.49.73.73-.24-.24-.48-.49-.73-.73Z"/>
      <path class="cls-1" d="M34.9,173.87c.24.28.48.56.72.84-.39-.15-.62-.44-.72-.84Z"/>
      <path class="cls-1" d="M46.13,181.12c.24.2.48.39.73.59-.24-.2-.48-.39-.73-.59Z"/>
      <path class="cls-1" d="M50.98,173.28c0,1.7.03,2.63,0,3.56-.07,1.99-.84,2.4-2.61,1.36-1.87-1.09-2.58-2.95-2.89-4.92-.43-2.8.11-5.56.93-8.22.33-1.05.8-2.41,2.32-2.12,1.2.23,1.53,1.43,1.53,2.47,0,2.9,1.06,5.72.72,7.87Z"/>
      <path class="cls-2" d="M36.45,164.26c.15-.53-.88-2.15.62-2.51,1.16-.28,1.94,1.12,2.48,2.11,1.47,2.65,2.11,5.61,2.84,8.52.33,1.31-.59,2.06-1.81,1.5-1.73-.79-3.1-2.03-3.59-3.97-.42-1.68-.83-3.37-.54-5.64Z"/>
      <path class="cls-7" d="M148.97,94.36c-1.6,2.67-3.54,4.68-6.87,4.6-4.18-.1-7.7-4.46-7.3-9.01.05-.58.2-1.15.34-1.71.56-2.22.8-2.34,2.75-1.27,3.89,2.12,7.35,4.88,11.07,7.39Z"/>
      <path class="cls-7" d="M139.37,114.78c3.67,1.03,6.75,2.26,10.03,1.39-.05-.53-.48-.78-.88-.81-2.82-.22-5.32-1.48-7.97-2.29-1.66-.51-2.71-1.16-2.69-3.03,0-.78-.61-1.53-.13-2.59,8.95,3.88,18.25,6.31,28.17,6.29-.11,2.31-2.33,1.65-3.29,2.61-.11,1.1.72.49,1.1.58,1.24.27,1.21.94.51,1.7-.29.32-.79.48-1.23.61-5.92,1.69-11.89,2.11-17.89.5-2.57-.69-3.57-1.61-5.73-4.95Z"/>
      <path class="cls-7" d="M177.06,89.08c1.19,3.19.27,7.96-1.79,9.86-1.2,1.11-2.66,1.15-3.73.11-1.4-1.37-1.73-3.64-.44-4.56,2.18-1.56,3.91-3.6,5.96-5.41Z"/>
    </g>
  </g>
</svg>